<?xml version="1.0" encoding="utf-8"?>
<!-- Generator: Adobe Illustrator 25.4.1, SVG Export Plug-In . SVG Version: 6.00 Build 0)  -->
<svg version="1.1" id="Layer_1" xmlns="http://www.w3.org/2000/svg" xmlns:xlink="http://www.w3.org/1999/xlink" x="0px" y="0px"
	 viewBox="0 0 300 300" style="enable-background:new 0 0 300 300;" xml:space="preserve">
<style type="text/css">
	.st0{fill:#FFFFFF;}
	.st1{fill:#024789;}
	.st2{fill:#002B5F;}
	.st3{fill:#002456;}
	.st4{fill:#013B76;}
	.st5{fill:#01356E;}
	.st6{fill:#002A5D;}
	.st7{fill:#024180;}
	.st8{fill:#010735;}
	.st9{fill:#013D7A;}
	.st10{fill:#045092;}
	.st11{fill:#05589A;}
	.st12{fill:#001F50;}
	.st13{fill:#013168;}
	.st14{fill:#013873;}
	.st15{fill:#002E63;}
	.st16{fill:#0765A9;}
	.st17{fill:#065FA2;}
	.st18{fill:#024485;}
	.st19{fill:#0973B6;}
	.st20{fill:#086CB0;}
	.st21{fill:#001A4B;}
	.st22{fill:#0B7ABE;}
	.st23{fill:#024586;}
	.st24{fill:#01346D;}
	.st25{fill:#001545;}
	.st26{fill:#6AB3E3;}
	.st27{fill:#0C81C5;}
	.st28{fill:#0C80C4;}
	.st29{fill:#002C60;}
	.st30{fill:#02498B;}
	.st31{fill:#002759;}
	.st32{fill:#02407F;}
	.st33{fill:#001040;}
	.st34{fill:#002152;}
	.st35{fill:#0A76BA;}
	.st36{fill:#62ABDC;}
	.st37{fill:#59A2D4;}
	.st38{fill:#045294;}
	.st39{fill:#086CAF;}
	.st40{fill:#055B9E;}
	.st41{fill:#000B3A;}
	.st42{fill:#5098CC;}
	.st43{fill:#0766A9;}
	.st44{fill:#013670;}
	.st45{fill:#238ECD;}
	.st46{fill:#01336B;}
	.st47{fill:#1989CA;}
	.st48{fill:#013167;}
	.st49{fill:#54A8DC;}
	.st50{fill:#3E9CD5;}
	.st51{fill:#001343;}
	.st52{fill:#48A2D9;}
	.st53{fill:#096EB2;}
	.st54{fill:#60AEE0;}
	.st55{fill:#045597;}
	.st56{fill:#4189BF;}
	.st57{fill:#0E83C6;}
	.st58{fill:#000635;}
	.st59{fill:#065DA0;}
	.st60{fill:#1D63A0;}
	.st61{fill:#0A78BC;}
	.st62{fill:#0B7DC1;}
	.st63{fill:#266CA8;}
	.st64{fill:#0B5191;}
	.st65{fill:#218DCC;}
	.st66{fill:#013771;}
	.st67{fill:#034B8D;}
	.st68{fill:#1285C8;}
	.st69{fill:#3A81B9;}
	.st70{fill:#013D79;}
	.st71{fill:#02417F;}
	.st72{fill:#2E94D1;}
	.st73{fill:#024788;}
	.st74{fill:#347BB4;}
	.st75{fill:#05599C;}
	.st76{fill:#0763A6;}
	.st77{fill:#0C7EC2;}
	.st78{fill:#6AB4E3;}
	.st79{fill:#0764A7;}
	.st80{fill:#2690CE;}
	.st81{fill:#010B3A;}
	.st82{fill:#3B9BD5;}
	.st83{fill:#1B8ACA;}
	.st84{fill:#3196D2;}
	.st85{fill:#0765A8;}
	.st86{fill:#034E90;}
	.st87{fill:#3296D2;}
	.st88{fill:#47A1D8;}
	.st89{fill:#3D9CD5;}
	.st90{fill:#5FAEE0;}
	.st91{fill:#4991C6;}
	.st92{fill:#52A7DC;}
	.st93{fill:#0A77BA;}
	.st94{fill:#020735;}
	.st95{fill:#4890C5;}
	.st96{fill:#2D74AE;}
	.st97{fill:#DBEDF8;}
	.st98{fill:#6BB5E4;}
	.st99{fill:#5BACDF;}
	.st100{fill:#E7F3FB;}
	.st101{fill:#68B3E3;}
	.st102{fill:#1A89CA;}
	.st103{fill:#4BA3DA;}
	.st104{fill:#3195D1;}
	.st105{fill:#F2F9FD;}
	.st106{fill:#3F9DD6;}
	.st107{fill:#63B0E1;}
	.st108{fill:#248FCD;}
	.st109{fill:#1F8CCC;}
	.st110{fill:#3598D3;}
	.st111{fill:#4AA3D9;}
	.st112{fill:#6CB5E3;}
	.st113{fill:#7FBEE7;}
	.st114{fill:#9BCCEC;}
	.st115{fill:#5EADDF;}
	.st116{fill:#87C2E9;}
	.st117{fill:#97CBEC;}
	.st118{fill:#BCDDF3;}
	.st119{fill:#A9D4EF;}
	.st120{fill:#77BBE6;}
	.st121{fill:#BBDCF1;}
	.st122{fill:#CFE7F6;}
	.st123{fill:#E8F3FB;}
	.st124{fill:#05579A;}
	.st125{fill:#086BAE;}
	.st126{fill:#0970B4;}
	.st127{fill:#45486B;}
	.st128{fill:#8D94AB;}
	.st129{fill:#79BCE6;}
	.st130{fill:#85C2E9;}
	.st131{fill:#99CCEC;}
	.st132{fill:#91C7EB;}
	.st133{fill:#8DC6EA;}
	.st134{fill:#145A99;}
	.st135{fill:#2E74AF;}
	.st136{fill:#045093;}
	.st137{fill:#D0E7F6;}
	.st138{fill:#A5D2EE;}
	.st139{fill:#B4D9F1;}
	.st140{fill:#C2E0F4;}
</style>
<g>
	<polygon class="st0" points="202.5,175.2 207.6,173 202.5,166.2 201.6,165.9 	"/>
	<g>
		<path class="st1" d="M105.8,113.3c7.9,6.6,16.8,11.3,26.9,13.6c3.5,0.8,7.1,0.7,10.6,0.9c1.3-0.2,2.6,0,3.9-0.1c0.8,0,1,0.5,1.1,1
			c0.3,1.4,0.3,2.8,0.5,4.1c0.9,10.1,1.8,20.1,2.7,30.2c0.2,2.7,0.5,5.4,0.8,8.2c0,0.4,0.1,0.9,0.3,1.2c0.1,1.1-0.7,0.8-1.2,0.7
			c-1-0.2-1.9-0.7-2.7-1.2c-0.9-0.6-1.8-1.2-2.6-1.9c-0.1-0.1-0.2-0.2-0.3-0.3c0,0-0.1-0.1-0.1-0.1c-0.1-0.1-0.2-0.2-0.3-0.2
			c-0.1-0.1-0.2-0.1-0.3-0.2c-2.6-2.4-5.2-4.7-7.5-7.4c-0.1-0.1-0.2-0.2-0.3-0.3c0,0-0.1-0.1-0.1-0.1c-2.1-2.3-4.2-4.6-6-7.2
			c-0.1-0.1-0.1-0.2-0.2-0.3c0,0-0.1-0.1-0.1-0.1c-1.3-2-2.7-3.9-4-5.9c-0.1-0.1-0.2-0.3-0.3-0.4c-0.1-0.2-0.2-0.4-0.4-0.6
			c-0.1-0.1-0.2-0.3-0.3-0.4c-0.1-0.2-0.3-0.4-0.4-0.6c-1.6-2.2-3-4.4-4.6-6.6c-1.4-2-2.7-4-4-6c-0.1-0.1-0.2-0.3-0.3-0.4
			c-0.1-0.2-0.2-0.4-0.3-0.5c-0.1-0.1-0.2-0.3-0.2-0.4c-0.1-0.2-0.2-0.3-0.3-0.5c-0.1-0.1-0.2-0.3-0.3-0.4c-0.1-0.2-0.3-0.4-0.4-0.5
			c-1.6-2.4-3.3-4.6-4.8-7c-0.1-0.1-0.1-0.2-0.2-0.3c0,0-0.1-0.1-0.1-0.1c-1.2-1.8-2.5-3.5-3.6-5.3c-0.1-0.1-0.1-0.2-0.2-0.3
			c0-0.1-0.1-0.1-0.1-0.2c-0.1-0.1-0.2-0.2-0.3-0.3c-0.2-0.2-0.3-0.5-0.5-0.7c-0.8-0.9-1.4-2-2.1-3c-0.3-0.4-0.5-1.1-1.1-0.9
			c-0.5,0.2-0.2,0.8-0.3,1.3c0,0.5,0,1,0,1.6c0,28.3,0,56.5,0,84.8c0,0.9,0.3,1.9-0.5,2.7c-0.3-0.1-0.5-0.2-0.8-0.2
			c-0.2-0.2-0.6,0-0.8-0.3l0,0c-0.7-0.2-1-0.8-1-1.5c0-0.5,0-1,0-1.6c0-29.5,0-58.9,0-88.4c0-0.7,0-1.3,0.1-2
			c0.1-0.6,0.2-1.2,0.8-1.3c0.6-0.1,0.8,0.4,1.1,0.8c0.1,0.1,0.2,0.2,0.4,0.3l0,0c0,0.2,0.1,0.2,0.3,0.3l0,0c0,0.1,0.1,0.2,0.3,0.3
			l0,0c0.1,0.1,0.2,0.2,0.3,0.3l0,0c0.1,0.1,0.2,0.2,0.3,0.3l0,0c0.1,0.1,0.2,0.2,0.3,0.3l0,0c0.1,0.1,0.2,0.2,0.3,0.3l0,0
			c0.1,0.1,0.2,0.2,0.3,0.3l0,0c0.1,0.1,0.2,0.2,0.3,0.3l0,0c0.1,0.1,0.2,0.2,0.3,0.3l0,0c0.1,0.1,0.2,0.2,0.3,0.3l0,0
			c0.1,0.1,0.2,0.2,0.3,0.3l0,0c0.1,0.1,0.2,0.2,0.3,0.3l0,0c0.1,0.1,0.2,0.2,0.3,0.3l0,0c0.1,0.1,0.2,0.2,0.3,0.3l0,0
			c0.1,0.1,0.1,0.2,0.3,0.3l0,0c0,0.2,0.1,0.3,0.3,0.3l0,0C105.2,113,105.6,113,105.8,113.3z"/>
		<path class="st2" d="M84.4,84.9c3.1,4.5,6.1,9,9.2,13.6c-0.2,0.9-1.1,0.5-1.6,0.8c-1.5,0.3-3.1,0.5-4.7,0.8
			c-1.1,0.2-2.2,0.4-3.4,0.6c-1.4,0.3-2.8,0.4-4.2,0.7c-1.5,0.3-3.1,0.5-4.7,0.8c-1.5,0.3-3,0.5-4.4,0.8c-1.6,0.3-3.1,0.5-4.7,0.8
			c-1.5,0.3-3.1,0.6-4.6,0.8c-1,0.2-1.9,0.2-2.9,0.5c-0.5,0.1-1.1,0-1.6,0.3c-0.5,0.1-1.1,0.2-1.6,0.3c-0.9,0.2-1.9,0.2-2.8,0.5
			c-0.5,0.1-1.1,0.1-1.6,0.3c-0.5,0.1-1.1,0.2-1.6,0.3c-1,0.2-2.1,0.2-3.1,0.5c-0.6,0.1-1.1,0-1.7,0.3c-1.3,0.3-2.7,0.5-4,0.7
			c-0.6,0.1-1.1,0.2-1.6-0.3c0.9-6.3,1.7-12.5,2.6-18.8c0.3-0.6,0.9-0.7,1.5-0.8c3.6-0.4,7.3-0.7,10.9-1c6.3-0.6,12.7-1.1,19-1.7
			c3.2-0.3,6.5-0.6,9.7-0.9C83.2,84.6,83.8,84.5,84.4,84.9z"/>
		<path class="st1" d="M99.3,89.5c-0.1,0-0.1-0.1-0.1-0.1c0-0.2-0.1-0.3-0.2-0.4l0,0c-0.1-0.1-0.2-0.2-0.2-0.3l0,0
			c-0.2-0.1-0.1-0.4-0.3-0.5c-8-11.7-16-23.4-24.1-35.1c-4.4-6.4-8.8-12.8-13.2-19.2c-0.3-0.4-0.5-1-0.8-1.4c0.5,0,1,0,1.5,0
			c2.6,0.2,5.2,0.1,7.7,0.5c1.9,0.3,3.8,0.7,5.7,1.1c1.7,0.6,3.4,0.8,5.1,1.4c0.4,0.2,0.9,0.4,1.2,0.8c2.2,6.1,4.4,12.2,6.5,18.3
			c3.8,10.8,7.6,21.5,11.5,32.3c0.3,0.9,0.7,1.9,0.9,2.8c0.1,0.4,0.3,1.2-0.7,0.9l0,0c-0.2-0.1-0.1-0.4-0.3-0.5l0,0
			c0-0.2-0.1-0.2-0.2-0.3l0,0C99.5,89.7,99.4,89.6,99.3,89.5z"/>
		<path class="st3" d="M195.3,113.6c-3,0.3-5.9,0.7-8.9,1c-1.8,0.2-2.3-0.1-2.4-1.9c0-0.3,0-0.7,0-1c0-19.7,0-39.4,0-59.1
			c0-0.7-0.1-1.4,0.2-2.1c0.2-0.5,0.3-1.2,1.1-0.9l0,0c0.1,0.1,0.2,0.2,0.3,0.2c3.1,2.1,5.8,4.5,8.3,7.3c-0.2,17.7,0,35.5-0.1,53.2
			C193.8,111.8,193.9,112.9,195.3,113.6z"/>
		<path class="st4" d="M160,108.3c-2.8-3.6-5.6-7.1-8.3-10.7c-0.3-0.7-0.3-1.4-0.3-2.2c0-19.2,0-38.4,0-57.6c0-0.7-0.1-1.3,0.1-1.9
			c0.1-0.5,0.2-1.1,1-0.8c2.9,0.5,5.6,1.3,8.3,2.3c-0.4,1.6-0.3,3.3-0.3,4.9c0,21.1,0,42.3,0,63.4
			C160.5,106.6,160.7,107.5,160,108.3z"/>
		<path class="st5" d="M160,108.3c0-22.9,0-45.8,0-68.7c0-0.8-0.2-1.8,0.8-2.2c2.2,0.8,4.3,1.6,6.5,2.4c0.3,0.8,0.2,1.5,0.2,2.3
			c0,23.9,0,47.9,0,71.8c0,1.1,0,2.1,0.9,2.9c-1.1,0.5-1.9,0.3-2.6-0.8C163.9,113.3,161.9,110.8,160,108.3z"/>
		<path class="st6" d="M185.3,49.6c-0.9,0.4-0.8,1.2-0.8,1.9c0,20.4,0,40.8,0,61.2c0,1.4,0.5,2,1.9,1.9c-3,0.3-6,0.7-8.9,1
			c-0.6-0.5-0.5-1.3-0.5-1.9c0-2.9,0-5.7,0-8.6c0-19,0-38.1,0-57.1c0-0.6-0.1-1.3,0.1-1.9c0.1-0.6,0.2-1.2,1-1.1
			C180.6,46.2,183,47.8,185.3,49.6z"/>
		<path class="st7" d="M152.5,35c-0.9,0.3-0.6,1.1-0.6,1.7c0,19.6,0,39.2,0,58.7c0,0.7-0.2,1.5-0.2,2.2c-0.5-0.6-1-1.2-1.6-1.8
			c-1.6-1.3-2.6-3.1-3.8-4.7c-0.4-0.6-0.9-1.2-1.3-1.8c-0.1-0.1-0.2-0.2-0.2-0.3c0,0-0.1-0.1-0.1-0.1c-0.1-0.1-0.2-0.2-0.2-0.3
			c-0.1-0.1-0.2-0.2-0.2-0.3c-0.3-0.5-0.4-1-0.4-1.5c-0.1-0.6-0.1-1.3-0.1-1.9c0-16.3,0-32.6,0-48.9c0-0.5,0-1.1,0.1-1.6
			c0.1-0.4,0.1-1,0.8-1C147.1,34,149.8,34.5,152.5,35z"/>
		<path class="st8" d="M16,267.4c-2.5,0-5,0.1-7.6,0c-4.8-0.1-7.9-3.6-7.4-8.3c0.3-2.4,2.2-0.9,3.3-1.2c1.2-0.3,0.6,0.8,0.6,1.2
			c-0.1,2.6,1.6,4.4,4.5,4.5c4.8,0.1,9.6,0.1,14.5,0c4.3-0.1,8-4.7,7.3-9c-0.4-2.8-2.3-4.2-5.1-4.2c-4.1-0.1-8.3,0-12.4,0
			c-6.1,0-9.5-4.4-7.9-10.3c1.5-5.5,6.3-9.2,12-9.2c4.9,0,9.7-0.1,14.6,0.3c4.1,0.3,6.6,4,5.6,7.8c-0.5,1.9-2.3,0.6-3.4,0.8
			c-1,0.2-0.4-0.7-0.4-1.1c0.1-2.3-1-3.7-3.2-3.9c-5.1-0.5-10.2-0.5-15.3,0c-2.9,0.3-5.5,3-6,5.9c-0.7,3.7,1.2,6.1,4.9,6.1
			c4,0,7.9,0,11.9,0c6.7,0,10.3,4.8,8.4,11.3c-1.6,5.5-6.8,9.3-12.5,9.3C20.2,267.4,18.1,267.4,16,267.4z"/>
		<path class="st8" d="M187.1,238.1c2.6,0,5.5-0.6,7.9,0.2c2.4,0.7,4.3,0.2,6.5,0c5.3-0.4,10.7-0.2,16-0.1c1.8,0,2.7,1.4,2.4,3.1
			c-1.7,8.6-3.4,17.1-5.3,25.6c-0.3,1.4-2.1,0.5-3.2,0.5c-0.9,0-0.3-0.9-0.2-1.3c1.6-7.8,3.2-15.6,4.8-23.3c0.2-0.9,0.2-1.3-0.9-1.2
			c-4.9,0.1-9.7,0-14.6,0c-0.8,0-1.1,0.2-1.3,1c-1.6,7.9-3.3,15.7-4.8,23.6c-0.5,2.5-2.4,1.2-3.5,1.2c-1,0-0.2-1.2-0.1-1.7
			c1.5-7.7,3.1-15.3,4.7-22.9c0.2-1-0.1-1.1-1-1.1c-4.8,0-9.6,0.1-14.5,0c-1,0-1.2,0.4-1.4,1.2c-1.6,7.9-3.2,15.8-4.9,23.7
			c-0.4,2.1-2.2,0.8-3.3,0.9c-1.2,0.1-0.3-1-0.2-1.4c1.6-7.8,3.2-15.6,4.8-23.4c0.6-2.9,2.2-4.4,5.2-4.3
			C182.6,238.2,184.9,238.1,187.1,238.1C187.1,238.1,187.1,238.1,187.1,238.1z"/>
		<path class="st9" d="M110.5,123.2c1.6,2.4,3.3,4.9,4.9,7.3c-0.2,0.8,0,1.6,0,2.5c0,22.7,0,45.4,0,68.1c0,0.9,0,1.8,0.1,2.7
			c-2,0.4-4,0.3-6,0.2c-0.7-0.7-0.5-1.5-0.5-2.3c0-10.1,0-20.1,0-30.2c0-15.3,0-30.6,0-45.8c0-0.6-0.1-1.3,0.1-1.9
			c0.2-0.6,0.4-1.1,1.2-0.7C110.3,123,110.4,123.1,110.5,123.2z"/>
		<path class="st10" d="M92,98.9c0.5-0.2,1.1-0.3,1.6-0.5c1.1,1.5,2.1,3.1,3.2,4.6c0.3,1.8,0.2,3.5,0.2,5.3c0,30.3,0,60.6,0,90.8
			c0,0.6,0.1,1.3-0.3,1.9c-1.5-0.8-3-1.5-4.4-2.3c-0.5-0.6-0.5-1.4-0.5-2.1c0-3.4,0-6.9,0-10.3c0-28.5,0-57,0-85.5
			C91.7,100.3,91.7,99.6,92,98.9z"/>
		<path class="st11" d="M92,98.9c0.1,0.4,0.3,0.7,0.3,1.1c0,32.9,0,65.9,0,98.8c-1.4-1-2.8-1.9-4.2-2.9c-0.6-0.8-0.5-1.8-0.5-2.8
			c0-30.1,0-60.2,0-90.2c0-1.1,0.1-2.2-0.3-3.2C88.8,99.4,90.4,99.2,92,98.9z"/>
		<path class="st12" d="M195.3,113.6c-1.5,0.2-1.9-0.5-1.9-2c0.1-17.5,0-34.9,0-52.4c0-0.7-0.1-1.5,0.6-2c2.5,2.6,5,5.2,7.5,7.9
			c0,11.6,0,23.2,0,34.7c0,3.5,0,7,0,10.5c0,0.9,0.1,1.7,0.6,2.5C199.8,113,197.5,113.3,195.3,113.6z"/>
		<path class="st13" d="M168.4,116.7c-1,0.1-1.4-0.3-1.4-1.4c0-24.7,0-49.5,0-74.2c0-0.5,0.2-0.9,0.3-1.4l0,0
			c0.2,0.2,0.4,0.2,0.6,0.2c0.1,0,0.1,0,0.2,0.1c0.1,0.1,0.4,0.1,0.5,0.2c1.3,0.6,2.6,1.2,3.9,1.8c0.3,0.4,0.2,0.8,0.2,1.3
			c0,23.2,0,46.3,0,69.5c0,1.1,0,2.3,0.1,3.4C171.4,116.3,169.9,116.5,168.4,116.7z"/>
		<path class="st14" d="M115.5,203.8c-0.8-0.2-0.6-0.8-0.6-1.3c0-23.6,0-47.1,0-70.7c0-0.5-0.1-1.1,0.5-1.4c0.1,0.2,0.2,0.3,0.3,0.5
			c0.1,0.1,0.2,0.2,0.3,0.3c0.1,0.2,0.2,0.3,0.3,0.5c0.1,0.1,0.2,0.2,0.3,0.3c0.1,0.2,0.2,0.3,0.3,0.5c0.1,0.1,0.2,0.2,0.3,0.3
			c1.4,2.1,2.8,4.2,4.2,6.3c-0.4,0.6-0.3,1.4-0.3,2c0,19.8,0,39.5,0,59.3c0,0.9,0.2,1.6,0.6,2.3c-1.3,0.3-2.6,0.5-3.9,0.8
			c-0.5,0.3-1.1-0.1-1.6,0.2C115.8,203.7,115.6,203.7,115.5,203.8z"/>
		<path class="st15" d="M172.9,116.2c-0.7-0.2-0.6-0.7-0.6-1.2c0-23.8,0-47.5,0-71.3c0-0.6,0.2-1.1,0.3-1.7c1.8,1,3.7,1.9,5.5,2.9
			c-0.8,0.4-0.6,1.2-0.6,1.8c0,23,0,45.9,0,68.9C175.9,115.8,174.4,116,172.9,116.2z"/>
		<path class="st7" d="M110.2,122.9c-1.2,0-0.8,1-0.8,1.6c0,26.5,0,53,0,79.5c-1.5-0.2-3-0.3-4.4-0.5c-0.6-0.7-0.5-1.5-0.5-2.2
			c0-7.6,0-15.3,0-22.9c0-19.6,0-39.3,0-58.9c0-0.7-0.1-1.4,0.1-2.1c0.1-0.6,0.3-1.2,1.2-1c0.1,0.2,0.2,0.3,0.3,0.5
			c0.1,0.1,0.2,0.2,0.3,0.3l0,0c0.1,0.1,0.2,0.2,0.3,0.3C107.8,119.3,109,121.1,110.2,122.9z"/>
		<path class="st16" d="M79.7,101c1.4-0.3,2.8-0.5,4.2-0.8c0.5,0.3,0.7,0.8,0.7,1.3c0.1,0.6,0,1.1,0,1.7c0,28.8,0,57.5,0,86.3
			c0,1.2-0.1,2.4,0.7,3.3c0.2,0.2,0.3,0.6,0,0.8c-2.2-1.9-4.1-4-5.7-6.4c-0.2-0.7-0.3-1.4-0.3-2.2c0-27.4,0-54.8,0-82.2
			C79.5,102.3,79.4,101.6,79.7,101z"/>
		<path class="st17" d="M85.4,193.7c-1.6-1.4-1.3-3.3-1.3-5.1c0-28.8,0-57.6,0-86.5c0-0.6-0.2-1.3-0.2-1.9c1.1-0.2,2.2-0.4,3.4-0.5
			c1,0,0.8,0.7,0.8,1.3c0,31.7,0,63.3,0,95C87.2,195.2,86.3,194.4,85.4,193.7z"/>
		<path class="st18" d="M105.8,116.4c-1.1,0.2-0.8,1.1-0.8,1.8c0,28.4,0,56.9,0,85.3c-1.3-0.3-2.6-0.6-3.9-0.8c0-29.9,0-59.7,0-89.6
			c0-0.7-0.3-1.6,0.4-1.9c0.8-0.3,1,0.7,1.4,1.2C103.9,113.7,104.8,115,105.8,116.4z"/>
		<path class="st19" d="M70.6,102.6c1.5-0.3,3-0.5,4.5-0.8c0.6-0.3,1,0,1.2,0.6c0.2,0.5,0.1,1,0.1,1.6c0,24.7,0,49.5,0,74.2
			c0,0.9,0.1,1.9-0.8,2.6c-1.6-3.2-3.1-6.4-4.7-9.6c-0.2-0.9-0.2-1.8-0.2-2.7c0-20.9,0-41.9,0-62.8
			C70.6,104.6,70.6,103.6,70.6,102.6z"/>
		<path class="st20" d="M75.6,180.8c0.1-1.2,0.3-2.5,0.3-3.7c0-24.6,0-49.1,0-73.7c0-0.6,0.4-1.5-0.8-1.6c1.6-0.3,3.1-0.5,4.7-0.8
			c0.1,0.5,0.3,1,0.3,1.5c0,27.6,0,55.3,0,82.9c0,0.6-0.2,1.3-0.2,1.9C78.1,185.3,76.7,183.1,75.6,180.8z"/>
		<path class="st8" d="M143.8,267.4c-3.7,0-7.5,0-11.2,0c-2.2,0-3.4-1.5-3-3.7c1.5-7.2,2.9-14.4,4.5-21.5c0.6-2.7,2.2-4.1,5-4.1
			c4.3,0,8.5,0,12.8,0c0.4,0,1.5-0.4,1.2,0.4c-0.3,1,0.5,2.9-1.4,2.9c-4.2,0.1-8.4,0.1-12.6,0c-0.9,0-1.2,0.2-1.4,1.1
			c-1.4,6.8-2.8,13.6-4.2,20.4c-0.2,0.8,0,1.1,0.9,1.1c6,0,12,0,18,0c0.8,0,1.1-0.3,1.2-1.1c1.6-8,3.3-16,4.9-24
			c0.5-2.2,2.2-0.9,3.3-1c1.3-0.1,0.4,1,0.3,1.4c-1.8,9-3.7,17.9-5.5,26.9c-0.2,0.8-0.4,1.1-1.3,1.1
			C151.4,267.4,147.6,267.4,143.8,267.4z"/>
		<path class="st8" d="M242.4,267.4c-3.7,0-7.5,0-11.2,0c-2.3,0-3.4-1.3-3-3.5c1.5-7.4,2.9-14.8,4.6-22.2c0.5-2.3,2.2-3.6,4.7-3.6
			c4.3,0,8.7,0,13,0c0.4,0,1.5-0.5,1.2,0.5c-0.3,1,0.5,2.8-1.3,2.8c-4.3,0.1-8.5,0.1-12.8,0c-0.8,0-1.1,0.2-1.3,1
			c-1.4,6.8-2.8,13.7-4.2,20.5c-0.2,0.9,0.1,1,0.8,1c5.9,0,11.9-0.1,17.8,0c1.2,0,1.3-0.5,1.5-1.4c1.6-7.9,3.2-15.7,4.8-23.6
			c0.5-2.3,2.3-1,3.4-1c1,0,0.3,1.1,0.2,1.6c-1.8,8.9-3.7,17.8-5.4,26.6c-0.2,1-0.6,1.1-1.4,1.1C250,267.4,246.2,267.4,242.4,267.4z
			"/>
		<path class="st21" d="M202,112.8c-0.8,0.1-1.1-0.3-1.1-1.1c0-15.2,0-30.4,0-45.6c0-0.4-0.1-0.9,0.5-1l0,0c0.1,0.1,0.2,0.2,0.3,0.3
			l0,0c0.1,0.1,0.2,0.2,0.3,0.3l0,0c0.1,0.1,0.2,0.2,0.3,0.3l0,0c0.1,0.1,0.2,0.2,0.3,0.3l0,0c0.1,0.1,0.2,0.2,0.3,0.3l0,0
			c0.1,0.1,0.2,0.2,0.3,0.3l0,0c0.1,0.1,0.2,0.2,0.3,0.3c1.9,1.9,3.8,3.8,5.7,5.7c-0.2,1.2-0.3,2.5-0.3,3.8c0,10.8,0,21.7,0,32.5
			c0,1,0,2.1,0.1,3.1c-1.5,0.2-3,0.3-4.4,0.5c-0.6,0.3-1.3-0.1-1.9,0.2C202.3,112.7,202.2,112.8,202,112.8z"/>
		<path class="st22" d="M70.6,102.6c0.8,0.2,0.5,0.8,0.5,1.3c0,21.9,0,43.8,0,65.7c0,0.6-0.2,1.1-0.3,1.7c-1.7-3.3-3.3-6.6-5-9.9
			c-0.3-3-0.2-6-0.2-9c0-15.6,0-31.3,0-46.9c0-0.7-0.1-1.4,0.2-2.1C67.5,103.1,69,102.8,70.6,102.6z"/>
		<path class="st23" d="M144.5,33.4c-0.5,0.3-0.3,0.9-0.3,1.3c0,17.6,0,35.1,0,52.7c-1.3-0.2-1.4-1.5-2.2-2.2
			c-0.1-0.1-0.1-0.2-0.2-0.3c-0.1-0.1-0.1-0.2-0.2-0.3c-0.1-0.1-0.2-0.3-0.3-0.4c-0.1-0.1-0.1-0.2-0.2-0.3c-0.1-0.1-0.1-0.2-0.2-0.3
			c0,0-0.1-0.1-0.1-0.1c-0.8-1-1.5-2.1-2.3-3c-0.4-0.5-0.7-1.1-0.6-1.8c0-14.5,0-29,0-43.5c0-0.8-0.1-1.7,0.3-2.4
			c0.1-0.1,0.1-0.1,0.2-0.2C140.4,32.9,142.4,33.2,144.5,33.4z"/>
		<path class="st24" d="M121.5,202.7c-0.9,0-1.1-0.5-1.1-1.3c0-20.4,0-40.7,0-61.1c0-0.6,0-1.2,0.8-1.3c1.6,2.3,3.1,4.5,4.7,6.8
			c-0.3,0.8-0.3,1.6-0.3,2.5c0,17.2,0,34.5,0,51.7c0,0.6,0.1,1.1-0.2,1.6C124.1,202,122.8,202.4,121.5,202.7z"/>
		<path class="st13" d="M125.4,201.7c-0.1-0.7-0.3-1.5-0.3-2.2c0-17.2,0-34.4,0-51.6c0-0.8-0.1-1.6,0.8-2c0.1,0.2,0.2,0.3,0.3,0.5
			c0.1,0.1,0.2,0.2,0.3,0.3c0.1,0.2,0.2,0.3,0.3,0.5c0.1,0.1,0.2,0.2,0.3,0.3c1.4,2.1,2.8,4.2,4.2,6.3c-0.1,0.8,0,1.6,0,2.3
			c0,13.6,0,27.2,0,40.8c0,1,0,1.9,0.6,2.7c-1.8,0.6-3.6,1.2-5.4,1.8c-0.2,0.1-0.4,0.1-0.6,0.2C125.5,201.6,125.4,201.7,125.4,201.7
			z"/>
		<path class="st25" d="M208.8,112c-0.8-0.2-0.6-0.8-0.6-1.3c0-12.1,0-24.2,0-36.2c0-0.7-0.1-1.5,0.8-1.9l0,0
			c0.1,0.1,0.2,0.2,0.3,0.3l0,0c0.1,0.1,0.2,0.2,0.3,0.3c2.3,2.3,4.7,4.7,7,7c0,9.3,0,18.7,0,28c0,1.1,0.2,2.1,1.2,2.8
			C214.7,111.3,211.8,111.6,208.8,112z"/>
		<path class="st8" d="M108.4,238.1c3.3,0,6.6,0,9.9,0c2.2,0,3.3,1.3,2.9,3.5c-1.6,8.3-3.3,16.7-5.1,25c-0.4,1.8-2.2,0.7-3.3,0.8
			c-1,0.1-0.3-0.9-0.2-1.4c1.6-7.8,3.2-15.5,4.8-23.3c0.2-1,0-1.1-1-1.1c-5.9,0-11.7,0-17.6,0c-1,0-1.2,0.4-1.4,1.2
			c-1.6,7.9-3.2,15.8-4.9,23.7c-0.4,2.1-2.2,0.8-3.3,0.9c-1.1,0.1-0.3-1-0.2-1.4c1.6-7.8,3.2-15.6,4.8-23.4c0.6-2.9,2.2-4.4,5.2-4.3
			C102.2,238.2,105.3,238.1,108.4,238.1z"/>
		<path class="st26" d="M172,124.7c3.3-0.4,6.6-0.9,9.9-1.3c0.4,0.4,0.5,0.8,0.5,1.3c0,4.1,0.1,8.2,0,12.3c0,0.2-0.1,0.3-0.1,0.5
			c-0.1,0.2-0.2,0.4-0.4,0.5c-0.1,0-0.3,0-0.4-0.1c-0.1,0-0.1-0.1-0.2-0.1c-0.5-0.5-0.8-1.1-1.3-1.7c-0.1-0.1-0.2-0.2-0.2-0.3
			c0-0.1-0.1-0.1-0.1-0.2c-0.1-0.1-0.2-0.2-0.3-0.3c0-0.1-0.1-0.1-0.1-0.2c-0.4-0.4-0.6-1.3-1.1-1.1c-0.5,0.2-0.1,1-0.1,1.5
			c0.6,6.3,1.1,12.6,1.7,18.9c0.7,7.6,1.4,15.1,2.1,22.7c0.1,0.9,0.5,1.2,1.3,1.3c0.4,0,0.9-0.1,1.3,0c0.3,0,0.6,0,0.9,0
			c0.3,0,0.6,0,0.9,0c0.3,0.1,0.7,0.1,0.6,0.6c-0.4,0.5-0.9,0.5-1.4,0.5c-2.1,0-4.1,0.1-6.2,0c-0.7,0-1.3-0.1-1.8-0.6
			c-0.6-0.8-0.6-1.8-0.6-2.7c-0.6-7.2-1.3-14.4-2-21.6c-0.9-9.3-1.7-18.6-2.6-27.9C172.2,126.2,171.7,125.5,172,124.7z"/>
		<path class="st27" d="M118,94.2c-1,0.2-2.1,0.3-3.1,0.5c-2.2-6.5-4.6-12.9-6.9-19.4c-3.7-10.5-7.4-20.9-11.2-31.4
			c-0.3-1-0.9-1.6-1.8-2.1c-0.8-0.4-1.6-0.6-2.3-1.2c-0.1-0.1-0.2-0.3-0.2-0.4c0-0.2,0-0.3,0-0.5c0-1.9-0.1-3.8,0-5.7
			c0-1.4,0.2-1.5,1.6-1.5c2.1,0,4.2,0,6.3,0c0.7,0.5,0.5,1.2,0.6,1.9c0,2.5,0,4.9,0,7.4c0,1,0.2,1.9,0.9,2.6
			c2.5,7.2,5.1,14.3,7.6,21.5c2.9,8.2,5.9,16.4,8.8,24.7c0.4,1.1,1.1,2.1,0.8,3.4l0,0C118.8,94.2,118.4,94,118,94.2z"/>
		<path class="st28" d="M65.9,103.3c0.1,0.5,0.3,1,0.3,1.5c0,18.3,0,36.6,0,54.9c0,0.5,0.2,1.1-0.3,1.6c-1.6-3.2-3.3-6.4-4.9-9.6
			c-0.3-1.5-0.2-3-0.2-4.5c0-13.5,0-27,0-40.5c0-0.9-0.2-1.8,0.5-2.5C62.8,103.9,64.3,103.6,65.9,103.3z"/>
		<path class="st29" d="M131.6,199.6c-0.9,0.1-1.1-0.4-1.1-1.2c0-14.5,0-29.1,0-43.6c0-0.4-0.2-1,0.5-1.2c0,0,0,0,0,0
			c0.1,0.1,0.2,0.2,0.3,0.3c2,2.4,4,4.9,6,7.3c0,11.4,0,22.7,0,34.1c0,0.9,0.1,1.7-0.5,2.5C135.1,198.4,133.4,199,131.6,199.6z"/>
		<path class="st30" d="M96.7,201.1c-0.1-0.5-0.2-1.1-0.2-1.6c0-31.6,0-63.2,0-94.8c0-0.5,0.2-1.1,0.3-1.6c0,0,0,0,0,0
			c0,0.2,0.1,0.2,0.2,0.3l0,0c0.1,0.1,0.1,0.2,0.2,0.3c0.1,0,0.1,0.1,0.1,0.2c0,0.2,0.1,0.3,0.2,0.4c1.1,1.5,2.3,2.9,3.4,4.4
			c-2.2-1.7-1.9,0.1-1.9,1.4c0,30.1,0,60.2,0,90.4c0,0.7-0.1,1.4,0.5,1.9C98.6,201.8,97.6,201.5,96.7,201.1z"/>
		<path class="st31" d="M136.8,197.8c0-11.8,0-23.6,0-35.4c0-0.4-0.2-1,0.5-1.2c0,0,0,0,0,0c0.1,0.1,0.2,0.2,0.3,0.3
			c2.5,2.5,5.1,5,7.6,7.5c-0.4,1.4-0.3,2.8-0.3,4.3c0,6.4,0,12.7,0,19.1c0,0.9,0.1,1.7,0.6,2.5c-2.6,0.9-5.2,1.8-7.7,2.6
			c-0.2,0.1-0.4,0.1-0.6,0.2C137,197.7,136.9,197.8,136.8,197.8z"/>
		<path class="st8" d="M291.7,267.4c-1.7,0.5-2.9-0.5-4.1-1.9c-3.6-3.8-7.2-7.4-10.8-11.1c-0.3-0.3-0.6-0.5-0.9-0.7
			c-0.1,0.4-0.3,0.7-0.4,1.1c-0.8,3.9-1.6,7.7-2.4,11.6c-0.5,2.1-2.2,0.9-3.3,1c-1.3,0.1-0.3-1-0.3-1.4c2.5-12.2,5-24.3,7.6-36.4
			c0.4-2.1,2.2-0.9,3.3-0.9c1.2-0.1,0.3,1,0.2,1.5c-1.2,5.9-2.4,11.8-3.7,17.7c-0.2,0.7,0,1.2,0.5,1.7c5.4,5.5,10.8,11,16.1,16.5
			c0.4,0.4,0.7,0.9,1.1,1.3c-0.6,0-1.2,0.1-1.8,0.1C292.6,267.4,292.3,267.4,291.7,267.4z"/>
		<path class="st32" d="M220.2,118.5c2-0.3,4-0.5,6-0.8c0.3,0.5,0.3,1.1,0.3,1.6c0,8.9,0,17.9,0,26.8c0,0.7-0.2,1.4,0,2.1
			c-2.1,2.8-4.1,5.6-6.2,8.4c-0.6,0.1-0.8-0.4-1-0.8c-0.1-0.4-0.1-0.9-0.1-1.3c0-11.3,0-22.6,0-33.8
			C219.2,119.8,219.1,118.8,220.2,118.5z"/>
		<path class="st23" d="M220.2,118.5c-0.5,0.4-0.5,0.9-0.5,1.5c0,11.7,0,23.3,0,35c0,0.6-0.1,1.3,0.6,1.6c-1.5,2-3,4-4.5,6
			c-0.2,0.1-0.2,0.4-0.3,0.5l0,0c-0.1,0.1-0.1,0.2-0.2,0.3l0,0c-0.1,0.1-0.2,0.2-0.2,0.3l0,0c-0.7,0.2-0.8-0.3-1-0.7
			c-0.2-0.5-0.1-1.1-0.1-1.7c0-13.4,0-26.9,0-40.3c0-0.6-0.1-1.1,0.3-1.6C216.2,119,218.2,118.8,220.2,118.5z"/>
		<path class="st33" d="M217.7,111c-1.3,0.1-1.7-0.5-1.7-1.8c0.1-9.1,0-18.2,0-27.2c0-0.7-0.1-1.3,0.5-1.8l0,0
			c0.1,0.1,0.2,0.2,0.3,0.3l0,0c0.1,0.1,0.2,0.2,0.3,0.3c2.5,2.5,5,5,7.6,7.6c0,6.9,0,13.8,0,20.6c0,0.4-0.1,0.9-0.2,1.3
			C222.2,110.4,219.9,110.7,217.7,111z"/>
		<path class="st34" d="M145.4,194.9c-0.8,0.1-1.1-0.2-1.1-1c0-7.8,0-15.5,0-23.3c0-0.7,0.2-1.2,0.8-1.5c0.1,0,0.2,0,0.2,0
			c0.1,0.1,0.2,0.2,0.2,0.2l0,0c0.1,0.1,0.2,0.2,0.3,0.3c2,1.4,3.9,3.2,6.5,3.4c0.6-0.1,0.9,0.2,1,0.8c0,5.2,0,10.4,0,15.6
			c0,0.9,0,1.8,0.3,2.7C151,193,148.2,193.9,145.4,194.9z"/>
		<path class="st35" d="M92.8,40.5c3.3,0.5,4.5,2.8,5.4,5.6c5.5,15.6,11.1,31.2,16.6,46.8c0.2,0.5,0.6,1.1,0.1,1.7
			c-1.1,0.2-2.3,0.4-3.4,0.5c-0.5-3.1-1.9-5.9-2.9-8.9c-3.4-9.5-6.8-18.9-10.1-28.4c-1.8-5.2-3.7-10.4-5.5-15.6
			C92.8,41.8,92.4,41.2,92.8,40.5z"/>
		<path class="st36" d="M172,124.7c1.5,2.3,1,4.9,1.3,7.4c1,9.3,1.8,18.6,2.6,27.8c0.6,6.3,1.1,12.6,1.6,19
			c-1.1,0.8-2.2,0.5-3.3-0.1c-0.5-0.5-0.6-1.1-0.6-1.8c-0.6-7.4-1.3-14.8-2-22.2c-0.6-6.2-1.1-12.4-1.7-18.7
			c-0.3-3.2-0.6-6.4-0.9-9.6c0-0.5-0.1-0.9,0.1-1.4C170.1,125.1,171,124.9,172,124.7z"/>
		<path class="st4" d="M226.5,148.2c-0.6-0.1-0.5-0.6-0.5-1c0-9.5,0-18.9,0-28.4c0-0.4,0.2-0.7,0.2-1.1c0.2,0,0.4,0,0.7-0.1
			c0.5-0.2,1,0,1.4-0.2c1.4-0.2,2.8-0.4,4.2-0.5c0.2,0.9,0,1.7,0,2.6c0,5.9,0,11.8,0,17.7c0,1,0.2,2,0.1,3c-1.4,1.9-2.8,3.8-4.2,5.7
			c-0.1,0.1-0.2,0.2-0.2,0.3l0,0c-0.1,0.1-0.2,0.2-0.2,0.3l0,0c-0.2,0.1-0.2,0.4-0.3,0.5l0,0c-0.1,0.1-0.2,0.2-0.2,0.3l0,0
			c-0.1,0.1-0.2,0.2-0.2,0.3l0,0c-0.3,0.1-0.2,0.4-0.3,0.5l0,0C226.6,148,226.5,148.1,226.5,148.2L226.5,148.2z"/>
		<path class="st37" d="M169.1,125.2c0.9,2.5,0.7,5.3,1,7.9c0.9,8.5,1.6,17,2.4,25.5c0.6,6.3,1.1,12.6,1.6,18.9
			c0,0.4,0.2,0.7,0.3,1.1c-0.4,0.4-0.8,0.4-1.3,0.3c-0.7-0.3-1.7,0-2.1-0.9c-0.5-3.2-0.7-6.4-1-9.6c-0.6-6.3-1.2-12.7-1.7-19
			c-0.6-6.3-1.2-12.7-1.7-19c-0.1-1.6-0.2-3.2-0.6-4.8C167,125.6,168,125.4,169.1,125.2z"/>
		<path class="st38" d="M100.1,90.6c0.9-0.2,0.3-0.8,0.2-1.1c-3.2-9.2-6.5-18.3-9.8-27.5c-2.9-8.1-5.8-16.3-8.7-24.4
			c-0.1-0.4-0.1-0.8-0.2-1.1c1.1-0.6,1.9,0.1,2.8,0.6c0.8,1,1.1,2.4,1.5,3.6c4.3,12.1,8.6,24.2,12.9,36.3c2.1,5.8,4.2,11.6,6.2,17.4
			c0.2,0.7,0.6,1.4,0,2.1c-0.5,0.2-0.9,0.3-1.3-0.3C102.5,94.2,101.3,92.4,100.1,90.6z"/>
		<path class="st39" d="M92.8,40.5c4.8,13.4,9.6,26.9,14.3,40.3c1.5,4.2,3.1,8.5,4.6,12.7c0.2,0.6,0.6,1.2-0.2,1.7
			c-0.6,0.1-1.2,0.2-1.8,0.3c-0.6-0.4-0.8-1.1-1-1.8c-5.5-15.5-11.1-30.9-16.5-46.4c-0.7-2.1-1.5-4.2-2.2-6.2
			c-0.2-0.6-0.5-1.1-0.2-1.8c1.1-0.6,1.9,0.3,2.7,0.7C92.6,40.1,92.6,40.4,92.8,40.5C92.8,40.5,92.8,40.5,92.8,40.5z"/>
		<path class="st21" d="M153.8,192c-0.5,0-0.8-0.2-0.8-0.8c0-5.7,0-11.5,0-17.2c0-0.2,0.1-0.4,0.2-0.6c0.1-0.1,0.2-0.1,0.3-0.1
			c0.2,0,0.5,0.1,0.7,0.1c0.6,0.1,1.1,0.4,1.7,0.6c0.7,0.3,1.3,0.5,2,0.7c0.6,0.2,1.1,0.4,1.7,0.5c0.3,0.1,0.7,0.2,1,0.3
			c0.1,0,0.2,0.1,0.3,0.1c0.2,0.1,0.5,0.1,0.7,0.2c0.1,0,0.3,0.1,0.4,0.1c0.5,0.2,0.9,0.5,0.5,1.1c-0.4,0.5-0.5,1-0.5,1.6
			c0,3.5-0.1,7.1,0.1,10.6C159.4,190.1,156.6,191.1,153.8,192z"/>
		<path class="st40" d="M105,96.3c-1.1-4.9-3.2-9.4-4.8-14.1c-3.9-11.3-8-22.5-12-33.7c-1.4-3.8-2.7-7.6-4.1-11.4
			c0.1-0.2,0.3-0.2,0.6-0.2c0.9,0.3,1.9,0.3,2.6,1.2c6.2,17.1,12.2,34.3,18.4,51.5c0.5,1.5,1.1,2.9,1.6,4.4c0.2,0.5,0.4,1.1,0.3,1.6
			c-0.1,0.3-0.5,0.2-0.7,0.4C106.2,96.1,105.6,96.2,105,96.3z"/>
		<path class="st41" d="M224.4,110.2c-0.1-0.4-0.3-0.9-0.3-1.3c0-6.3,0-12.6,0-18.9c0-0.6,0-1.2,0.5-1.7l0,0
			c0.1,0.1,0.2,0.2,0.3,0.3l0,0c0.1,0.1,0.2,0.2,0.3,0.3l0,0c0.1,0.1,0.2,0.2,0.3,0.3l0,0c0.1,0.1,0.2,0.2,0.3,0.3l0,0
			c0.1,0.1,0.2,0.2,0.3,0.3c2,2,4,4,6,6c0,3.9,0,7.8,0,11.7c0,0.7,0.1,1.5-0.5,2.1C229.1,109.6,226.8,109.9,224.4,110.2z"/>
		<path class="st17" d="M124.5,32.5c2.2,0,4.3,0,6.5,0c0.1,0.2,0,0.3-0.1,0.4c-0.3,0.2-0.6,0.2-0.9,0.2c-0.9,0.2-1.9,0.1-2.9,0.1
			c-1,0-1.3,0.4-1.3,1.3c0,1.4,0,2.9,0,4.3c0,6.6,0,13.2,0,19.8c0,0.9,0.1,1.8-0.5,2.5c-0.1,0.1-0.2,0.2-0.3,0.3
			c-0.1,0.1-0.3,0.1-0.4,0.1c-1-0.8-1.8-1.9-2.9-2.6c-0.1-0.1-0.2-0.2-0.3-0.2c0,0-0.1-0.1-0.1-0.1c-0.1-0.1-0.2-0.2-0.3-0.3
			c0,0-0.1-0.1-0.1-0.1c-0.1-0.1-0.2-0.2-0.3-0.2c-0.1,0-0.1-0.1-0.2-0.1c-0.1-0.1-0.2-0.2-0.3-0.3c-0.1-0.1-0.1-0.3-0.1-0.4
			c0-0.2,0-0.3,0-0.5c0.3-5.2,0.1-10.4,0.1-15.6c0-2.1,0-4.2,0-6.3c0-0.6-0.1-1.3,0.3-1.9c0.9-0.4,1.8-0.1,2.7-0.2
			C123.6,32.5,124.1,32.7,124.5,32.5z"/>
		<path class="st42" d="M165.9,125.7c1.6,1.1,0.9,2.8,1,4.2c0.9,8.2,1.5,16.5,2.2,24.7c0.7,7.9,1.4,15.7,2.1,23.6
			c-0.8,0.6-1.6,0.3-2.3-0.2c-0.7-0.8-0.6-1.8-0.7-2.7c-0.6-7.2-1.3-14.3-1.9-21.5c-0.6-7.1-1.3-14.3-2-21.4
			c-0.2-1.7-0.3-3.4-0.4-5.1c0-0.5,0-1,0.3-1.4C164.7,125.9,165.3,125.8,165.9,125.7z"/>
		<path class="st43" d="M209.3,171.4c-1.6,3.3-2.2,0.6-3.1-0.5c-0.2-0.7-0.2-1.4-0.2-2.2c0-15.3,0-30.6,0-45.9
			c0-0.9-0.2-1.8,0.5-2.5c0.8-0.1,1.6-0.2,2.3-0.3c0.7,0.7,0.5,1.6,0.5,2.5c0,15.2,0,30.5,0,45.7
			C209.3,169.2,209.2,170.3,209.3,171.4z"/>
		<path class="st44" d="M232.5,140.2c-0.2-0.7-0.5-1.5-0.5-2.2c0-6.4,0-12.9,0-19.3c0-0.6,0.1-1.2,0.5-1.7c2-0.3,4-0.5,6-0.8
			c-0.1,4.1,0,8.1,0,12.2c0,1.1,0.1,2.2,0.4,3.2c-2,2.8-4.1,5.5-6.1,8.3C232.6,140,232.5,140,232.5,140.2L232.5,140.2z"/>
		<path class="st45" d="M123,93.4c-0.6,0.1-1.2,0.2-1.8,0.3c-0.3-0.3-0.5-0.7-0.7-1.1c-3.1-8.9-6.3-17.7-9.5-26.6
			c-2-5.7-4-11.4-6-17c-0.2-0.6-0.6-1.3-0.3-2c0.1-0.1,0.2-0.2,0.3-0.3c0.1,0,0.2-0.1,0.4,0c0.1,0,0.2,0.1,0.3,0.1
			c0.1,0.1,0.3,0.1,0.4,0.2c0.1,0,0.2,0.1,0.3,0.1c0.1,0.1,0.3,0.1,0.4,0.2c0.2,0.1,0.4,0.2,0.6,0.3c0.1,0,0.2,0.1,0.3,0.2
			c0.2,0.1,0.3,0.2,0.4,0.3c0.2,0.2,0.4,0.5,0.4,0.8c0.8,3.3,2.2,6.5,3.3,9.7c3,8.6,6.1,17.1,9.1,25.6c0.8,2.4,1.8,4.7,2.5,7.1
			c0.2,0.6,0.5,1.1,0.2,1.8C123.6,93.4,123.2,93.3,123,93.4z"/>
		<path class="st46" d="M84.4,84.9c-4.3,0.4-8.6,0.9-12.9,1.3c-7.6,0.7-15.1,1.4-22.7,2.1c-2.5,0.2-5,0.5-7.4,0.8
			c0.1-0.6,0.2-1.2,0.3-1.8c0.3-1.6,0.3-1.7,2-1.8c8.8-0.8,17.6-1.6,26.4-2.4c3.3-0.3,6.6-0.6,9.8-0.9c0.9-0.1,1.8-0.3,2.7,0.1
			C83.2,83.1,83.8,84,84.4,84.9z"/>
		<path class="st47" d="M105.3,46.8c-0.8,0.5-0.2,1,0,1.5c5.2,14.6,10.4,29.3,15.6,43.9c0.2,0.5,0.3,1,0.4,1.5
			c-0.7,0.1-1.4,0.2-2,0.3c-3.9-11-7.8-22-11.8-33c-1.7-4.8-3.4-9.6-5.1-14.3c-0.2-0.6-0.3-1.2-0.4-1.8
			C103,44.8,104.8,45.7,105.3,46.8z"/>
		<path class="st48" d="M238.8,131.5c-1.1,0-0.8-1-0.8-1.5c-0.1-4.3-0.1-8.5,0-12.8c0-0.4,0.3-0.7,0.5-1.1c4.1-0.6,8.2-1.1,12.4-1.7
			c0.2,0,0.4,0,0.6,0c-0.1,0.2-0.2,0.4-0.3,0.6C247,120.6,242.9,126.1,238.8,131.5z"/>
		<path class="st49" d="M120.4,57.4c0.1,0,0.1,0,0.2,0.1c0.1,0.1,0.2,0.1,0.2,0.2l0,0c0.1,0.1,0.2,0.1,0.3,0.2l0,0
			c0.1,0.1,0.2,0.2,0.3,0.2l0,0c0.1,0.1,0.2,0.2,0.3,0.3c0.9,0.9,1.9,1.8,2.8,2.6c0.1,1.7,0.9,3.1,1.4,4.7c2.9,8,5.7,16.1,8.6,24.1
			c0.2,0.6,0.7,1.3,0.2,2c-1.2,0.1-2.4,0.1-3.6,0.2c-1-3.8-2.5-7.4-3.8-11.1c-2.6-7.4-5.3-14.7-7.8-22.1c-0.2-0.6-0.6-1.3-0.2-2
			c0.1-0.1,0.2-0.1,0.3-0.2c0.1,0,0.2,0,0.4,0.1c0,0,0.1,0.1,0.1,0.1C120.2,57.2,120.3,57.4,120.4,57.4z"/>
		<path class="st50" d="M129,92.4L129,92.4l-0.2,0c-0.3,0.2-0.8,0-1.1,0.2c-0.1,0-0.3,0-0.4,0c-0.3,0.1-0.5,0.1-0.8,0.1
			c-0.6-0.3-0.7-0.9-0.9-1.4c-3.9-10.8-7.8-21.6-11.6-32.4c-0.7-1.9-1.4-3.8-2-5.8c-0.2-0.6-0.6-1.3,0-2c0.1,0,0.1-0.1,0.2-0.1
			c0.1,0,0.1,0,0.2,0c0.1,0,0.3,0,0.4,0.1c1.3,0.7,2.7,1.3,3.3,2.8c0.3,2,1.2,3.7,1.8,5.6c3.6,10.5,7.4,20.9,11.1,31.3
			C129.1,91.3,129.3,91.8,129,92.4z"/>
		<path class="st51" d="M169.1,177.9c0.7,0.1,1.4,0.2,2.1,0.3c0.6,0.2,1.3,0.3,1.9,0.5c-0.7,0.9-0.5,1.9-0.6,3
			c-0.1,1.4,0.4,2.8-0.4,4.2c-3,1-6.1,2.1-9.1,3.1c-0.2,0.1-0.4,0.1-0.6,0.2l-0.1,0.1l-0.1,0c-0.2-0.3-0.5-0.5-0.5-0.8
			c0-3.6,0-7.2,0-10.7c0-0.6,0.4-1,1.1-1c0.2-0.2,0.4-0.3,0.6-0.3c0.4,0,0.8,0.2,1.2,0.2c0.1,0,0.2,0.1,0.3,0.1
			c0.3,0.1,0.5,0.1,0.8,0.2c0.3,0.1,0.7,0.2,1,0.2c0.4,0.1,0.8,0.2,1.3,0.2C168.4,177.4,168.7,177.7,169.1,177.9z"/>
		<path class="st52" d="M129,92.4c-4.3-12.2-8.7-24.4-13-36.5c-0.2-0.7-0.7-1.3-0.3-2.1c0.1-0.1,0.2-0.1,0.3-0.1
			c0.1,0,0.2,0.1,0.3,0.1c0,0,0.1,0.1,0.1,0.1c0.1,0.1,0.2,0.1,0.2,0.2c0,0,0.1,0.1,0.1,0.1c0.1,0,0.2,0.1,0.3,0.2
			c0.1,0,0.2,0.1,0.3,0.1c0.1,0.1,0.3,0.1,0.4,0.2c0.8,0.7,2,1,2.2,2.2c-1,0.4-0.3,1.1-0.1,1.5c3.8,10.7,7.6,21.5,11.4,32.2
			c0.2,0.5,0.6,1,0,1.5C130.4,92.2,129.7,92.3,129,92.4z"/>
		<path class="st53" d="M206.4,120.3c0,16.2,0,32.5,0,48.7c0,0.6-0.2,1.3-0.3,1.9c-0.6-0.8-1.2-1.6-1.8-2.4
			c-0.4-0.8-0.5-1.7-0.5-2.6c0-14.4,0-28.7,0-43.1c0-0.8-0.1-1.6,0.5-2.2C205,120.5,205.7,120.4,206.4,120.3z"/>
		<path class="st54" d="M134.7,91.9c-3.4-9.7-6.9-19.4-10.3-29.2c-0.2-0.5-0.8-1.1,0.1-1.6c0,0.1,0.1,0.1,0.1,0.2
			c0.1,0.1,0.1,0.1,0.2,0.2c0.1,0,0.2,0.1,0.2,0.1c0.1,0.1,0.1,0.1,0.2,0.2c0,0,0.1,0.1,0.1,0.1c0.1,0.1,0.1,0.1,0.2,0.2
			c0.1,0.1,0.1,0.1,0.2,0.2c0.1,0.1,0.2,0.2,0.4,0.3c1.4,1.8,2.8,3.8,4.2,5.6c0.5,0.9,1.5,1.5,1.4,2.7c-0.1,0.5,0.1,0.9,0.2,1.4
			c2,5.9,4.2,11.8,6.3,17.7c0.2,0.7,0.7,1.4,0.1,2.1c-0.1,0-0.2,0-0.3,0c-1-0.3-2.1,0.1-3.2-0.2l-0.1,0L134.7,91.9z"/>
		<path class="st55" d="M210.6,119.8c0.7-0.1,1.4-0.2,2.1-0.3c0.6,0.5,0.5,1.2,0.5,1.8c0,14.4,0,28.9,0,43.3c0,0.5-0.1,1,0,1.6
			c-0.6,0.8-1.2,1.6-1.8,2.4c-0.1,0.1-0.3,0.2-0.2,0.3l0,0c-0.8,0-0.9-0.6-1-1.2c-0.1-0.6-0.1-1.2-0.1-1.8c0-14.5,0-29.1,0-43.6
			C210.1,121.4,209.9,120.5,210.6,119.8z"/>
		<path class="st56" d="M166.5,177.4c-0.4-0.1-0.7-0.2-1.1-0.2c-0.2-0.2-0.6,0-0.8-0.2l0,0c-0.4-0.5-0.4-1-0.5-1.6
			c-1-10.6-1.9-21.3-2.9-31.9c-0.5-5.1-0.9-10.2-1.4-15.3c-0.1-0.6-0.1-1.1,0.3-1.6l0,0c0.4-0.2,0.9,0,1.3-0.2c0.2,0,0.4,0,0.5,0
			c0.5,0.5,0.6,1.2,0.7,1.9c0.4,5.4,0.9,10.7,1.4,16c0.6,6.2,1.1,12.3,1.7,18.5c0.4,4,0.7,8,1.1,12
			C167,175.6,167.3,176.6,166.5,177.4z"/>
		<path class="st57" d="M198.1,121.4c0.7-0.1,1.4-0.2,2.1-0.3c0.8,0.6,0.8,1.4,0.8,2.2c0,3.2,0,6.4,0,9.6c0,8.8,0,17.5,0,26.3
			c0,1,0,2-0.3,3c-0.1,0.1-0.1,0.3-0.2,0.4c-0.2,0.3-0.5,0.3-0.8,0.1c-0.1-0.1-0.2-0.2-0.3-0.3c-0.1-0.1-0.2-0.2-0.3-0.3
			c0-0.1-0.1-0.1-0.1-0.2c-0.6-0.9-1.6-1.7-1.4-3c0-12,0-23.9,0-35.9C197.5,122.4,197.6,121.8,198.1,121.4z"/>
		<path class="st58" d="M231.4,109.4c0-4.1,0-8.2,0-12.3c0-0.5-0.1-1.2,0.5-1.5l0,0c0.1,0.1,0.2,0.2,0.3,0.3l0,0
			c0.1,0.1,0.2,0.2,0.3,0.3l0,0c0.1,0.1,0.2,0.2,0.3,0.3l0,0c0.1,0.1,0.2,0.2,0.3,0.3l0,0c0.1,0.1,0.2,0.2,0.3,0.3l0,0
			c0.1,0.1,0.2,0.2,0.3,0.3l0,0c0.1,0.1,0.2,0.2,0.3,0.3c3.4,3.3,6.7,6.6,10.1,9.9c0.4,0.4,0.5,0.7-0.2,0.7
			c-3.4,0.3-6.8,0.7-10.2,1.1c-0.5,0.2-1.2,0-1.7,0.2C231.6,109.3,231.5,109.3,231.4,109.4z"/>
		<path class="st59" d="M210.6,119.8c0,15.7,0,31.4,0,47.1c0,0.7-0.1,1.5,0.6,2c-0.6,0.8-1.3,1.7-1.9,2.5c-0.9-0.3-0.5-1-0.5-1.6
			c0-16.6,0-33.2,0-49.9C209.3,119.9,209.9,119.8,210.6,119.8z"/>
		<path class="st60" d="M157.9,175c-0.7-0.2-1.4-0.5-2.1-0.7c-0.6-0.7-0.6-1.6-0.7-2.5c-1.1-12.9-2.4-25.8-3.5-38.7
			c-0.1-1-0.2-2.1-0.3-3.1c-0.1-1.2-0.5-2-1.7-2.3c0-0.1-0.1-0.1-0.1-0.2c1.1-0.1,2.2-0.2,3.3-0.3c1.2-0.2,1.2,0.8,1.3,1.5
			c0.2,2,0.4,4.1,0.6,6.1c0.5,6.5,1.2,13,1.8,19.6c0.6,6.4,1.2,12.7,1.7,19.1C158.2,174,158.4,174.6,157.9,175z"/>
		<path class="st61" d="M105.3,46.8c-1.1-0.6-2.3-1.2-3.4-1.8c-1.1-0.6-1.4-1.6-1.3-2.8c0.1-3.1,0-6.3,0-9.4
			c0.4-0.2,0.9-0.1,1.4-0.1c1.6-0.1,3.3,0.1,4.9-0.1c2.2,0,4.3,0,6.5,0c0.1,0.2,0,0.3-0.1,0.4c-0.3,0.2-0.6,0.2-0.9,0.2
			c-0.9,0.1-1.7,0.1-2.6,0.1c-1.8,0-1.8,0.1-1.9,1.8c0,3.6,0,7.2,0,10.7c0,0.7,0.1,1.5-0.5,2.1c-0.3-0.1-0.5-0.2-0.8-0.3
			c-0.1-0.1-0.2-0.2-0.3-0.3c-0.1,0-0.2,0-0.3,0c-0.1-0.1-0.2-0.2-0.3-0.3c-0.1,0-0.2,0-0.3,0C105.5,46.9,105.4,46.9,105.3,46.8
			L105.3,46.8z"/>
		<path class="st62" d="M200.1,162.8c0.6-13.5,0.1-27,0.2-40.4c0-0.4-0.2-0.8-0.2-1.3c0.8-0.1,1.6-0.2,2.3-0.3
			c0.7,0.7,0.5,1.6,0.5,2.5c0,11.9,0,23.8,0,35.7c0,1.3,0,2.7,0,4c0,0.7,0,1.5-0.3,2.2c-0.2,0.4-0.5,0.8-0.9,0.4
			C200.9,164.8,200.1,164,200.1,162.8z"/>
		<path class="st63" d="M157.9,175c-0.6-6.6-1.2-13.1-1.8-19.7c-0.7-7.3-1.4-14.5-2-21.8c-0.1-1.5-0.2-2.9-0.3-4.4
			c-0.1-0.7,0.1-1.5-0.8-1.8c0.8-0.1,1.6-0.2,2.4-0.2c0.6,0.4,0.7,1,0.7,1.6c0.6,7.1,1.2,14.2,1.9,21.4c0.6,7,1.2,14,1.9,21
			c0.1,1,0.1,2.1,0.3,3.1c0.1,0.5,0.1,1.1-0.4,1.4C159.1,175.4,158.5,175.2,157.9,175z"/>
		<path class="st64" d="M153.5,173.5c-0.1,0-0.2,0-0.3,0c-0.3-0.2-0.5-0.3-0.8-0.5c-1.5-1-0.8-2.7-1-4c-0.9-9.1-1.6-18.2-2.4-27.3
			c-0.3-3.9-0.7-7.8-1-11.7c-0.1-1.6-0.6-2.5-2.4-2.1c-0.8,0.1-1.6,0-2.3,0c2.1-0.1,4.2-0.2,6.3-0.3l0,0.1c0.5,0.4,0.7,0.9,0.7,1.5
			c0.6,7.1,1.2,14.2,1.9,21.2c0.6,7,1.3,14.1,1.9,21.1c0.1,0.6,0.2,1.3-0.2,1.9C153.8,173.5,153.7,173.6,153.5,173.5z"/>
		<path class="st65" d="M56.8,104.9c0.5-0.1,1-0.2,1.6-0.3c1-0.4,1.4,0.2,1.6,1.1c0.1,0.5,0,1,0,1.4c0,13,0,25.9,0,38.9
			c0,0.8,0.2,1.8-0.5,2.5c-0.8-1.6-1.6-3.1-2.4-4.7c-0.4-8-0.1-16-0.2-23.9C56.8,114.9,56.9,109.9,56.8,104.9z"/>
		<path class="st66" d="M82.6,82.2c-4.3,0.4-8.6,0.9-12.9,1.3c-7.5,0.7-15,1.4-22.4,2.1c-1.2,0.1-2.5,0.3-3.7,0.3
			c-1.1-0.1-1.7,0.3-1.9,1.3c0.1-0.7,0.2-1.4,0.3-2.1c0.2-0.4,0-0.9,0.2-1.3l0,0c0.7-0.6,1.5-0.6,2.3-0.7c7.4-0.6,14.7-1.3,22-1.9
			c4.2-0.3,8.4-0.7,12.6-1.2c0.8-0.1,1.6-0.1,2.3,0.4C81.8,81,82.2,81.6,82.6,82.2z"/>
		<path class="st35" d="M202.2,165.6c0.6-14.9,0.1-29.9,0.3-44.8c0.6-0.1,1.2-0.2,1.8-0.2c0,16,0,31.9,0,47.9
			c-0.5-0.6-1-1.2-1.5-1.8c-0.2-0.1-0.2-0.4-0.3-0.5l0,0C202.2,166.1,202,165.9,202.2,165.6z"/>
		<path class="st67" d="M213.1,166.2c-0.7-0.4-0.5-1.1-0.5-1.8c0-15,0-29.9,0-44.9c0.5-0.1,1-0.1,1.6-0.2c0.1,0.6,0.2,1.2,0.2,1.8
			c0,13.7,0,27.4,0,41c0,0.5-0.3,1.3,0.6,1.5c-0.5,0.7-1,1.4-1.5,2.1C213.3,165.8,213.3,166,213.1,166.2L213.1,166.2z"/>
		<path class="st68" d="M59.4,148.5c0-14.2,0-28.5,0-42.7c0-0.8-0.2-1.2-1.1-1.2c1-0.2,1.9-0.3,2.9-0.5c0,15.2,0,30.4,0,45.6
			c0,0.6-0.2,1.3-0.3,1.9C60.4,150.6,59.9,149.6,59.4,148.5z"/>
		<path class="st69" d="M160.2,126.5c0.8,8.4,1.6,16.7,2.3,25.1c0.6,6.1,1.1,12.3,1.6,18.4c0.2,2.3,0.3,4.6,0.5,6.8
			c-0.4-0.1-0.9-0.2-1.3-0.3c-0.7-0.4-0.9-1-1-1.7c-0.5-5.9-1.1-11.8-1.6-17.7c-0.6-6.5-1.1-12.9-1.7-19.4c-0.3-3-0.5-6-0.8-9.1
			c-0.1-0.6-0.1-1.1,0.2-1.7c0.3-0.5,0.9-0.2,1.3-0.4C159.9,126.6,160.1,126.5,160.2,126.5z"/>
		<path class="st70" d="M81.4,80.4c-9.6,0.9-19.3,1.7-28.9,2.6c-3.4,0.3-6.9,0.5-10.3,0.8c0.1-0.7,0.2-1.4,0.3-2.1
			c0.6-0.6,1.4-0.7,2.2-0.7c9.6-0.8,19.2-1.7,28.8-2.6c2.1-0.2,4.2-0.6,6.3-0.4l0,0c0,0.1,0.1,0.2,0.2,0.3l0,0
			c0.2,0.1,0.1,0.4,0.3,0.5l0,0c0,0.1,0.1,0.2,0.2,0.3l0,0c0.2,0.1,0.1,0.4,0.3,0.5C81,79.9,81.2,80.1,81.4,80.4z"/>
		<path class="st71" d="M79.8,78c-3.6,1.1-7.3,0.9-11,1.3c-7.4,0.8-14.8,1.4-22.2,2.1c-1.4,0.1-2.8,0.2-4.1,0.3c0-0.1,0-0.2,0-0.3
			c0.3-0.4,0-1,0.2-1.4c0-0.1,0-0.3,0-0.4c0.3-0.6,0.9-0.7,1.4-0.7c7-0.6,14.1-1.2,21.1-1.9c3.9-0.4,7.9-0.7,11.8-1
			c0.6,0,1.2-0.1,1.7,0.5C79.1,77,79.4,77.5,79.8,78z"/>
		<path class="st72" d="M56.8,104.9c0.8,0.2,0.5,0.8,0.5,1.3c0,12.1,0,24.2,0,36.3c0,0.4-0.2,0.9-0.3,1.3c-0.7-1.3-1.3-2.6-2-4
			c-0.2-0.8-0.3-1.5-0.3-2.3c0-10.1,0-20.1,0-30.2c0-0.8-0.1-1.6,0.5-2.2C55.7,105.1,56.3,105,56.8,104.9z"/>
		<path class="st73" d="M78.7,76.5c-4.1,0.3-8.2,0.5-12.3,0.9c-5.4,0.5-10.8,1-16.2,1.5c-2.5,0.2-5,0.5-7.4,0.8
			c0.1-0.7,0.2-1.4,0.3-2.1c0.4-0.8,1.3-0.9,2-0.9c4.1-0.4,8.3-0.8,12.4-1.1c5.6-0.5,11.1-1,16.7-1.5c1-0.1,2.1-0.4,3,0.1
			C77.7,74.9,78.2,75.7,78.7,76.5z"/>
		<path class="st74" d="M158.7,126.8c0.8,8.7,1.6,17.4,2.3,26.1c0.6,7.2,1.2,14.3,1.9,21.5c0.1,0.7,0.3,1.4,0.5,2.1
			c-0.2,0-0.5,0-0.7,0c-0.4-0.2-0.7-0.3-1.1-0.5c-0.4-0.5-0.6-1.1-0.6-1.7c-0.2-4.4-0.7-8.7-1.1-13c-0.4-4.8-0.9-9.6-1.3-14.4
			c-0.3-3.8-0.7-7.6-1-11.3c-0.2-2.4-0.3-4.8-0.7-7.2c-0.1-0.4-0.1-0.8-0.5-1c-0.2-0.1-0.4-0.2-0.5-0.5c0.8-0.1,1.6-0.2,2.3-0.2
			C158.3,126.7,158.5,126.6,158.7,126.8z"/>
		<path class="st75" d="M74.3,70c0.5,0.8,1.1,1.6,1.6,2.3c-0.4,0.6-1,0.7-1.6,0.7c-6.1,0.5-12.3,1.1-18.4,1.6
			c-3.5,0.3-7,0.6-10.5,0.9c-0.7,0.1-1.4,0.3-2.2,0.1c0.1-0.6,0.2-1.2,0.3-1.8c0-1.1,0.6-1.5,1.6-1.6c3.5-0.4,7.1-0.6,10.6-1
			c5.6-0.5,11.1-1,16.7-1.5C73.1,69.7,73.7,69.6,74.3,70z"/>
		<path class="st76" d="M107.3,95.8c-4.6-13.1-9.3-26.2-13.9-39.3c-1.9-5.3-3.9-10.7-5.8-16c-0.3-0.7-0.4-1.5-0.6-2.2
			c0.7-0.4,1.2-0.1,1.7,0.4c2.2,5.8,4.2,11.6,6.3,17.4c3.9,11.1,7.9,22.2,11.9,33.4c0.6,1.6,1.2,3.3,1.7,4.9
			c0.2,0.5,0.5,1.1-0.2,1.5c-0.1,0-0.3,0-0.4,0.1C107.7,95.9,107.5,96,107.3,95.8z"/>
		<path class="st77" d="M44.6,66.3c0.2-1.1,0.3-2.3,0.5-3.4c0.8-0.7,1.8-0.6,2.7-0.6c5.3-0.5,10.7-1,16-1.4c1-0.1,2.1-0.3,3.1-0.3
			c0.5,0,1,0,1.4,0.3c0.6,0.9,1.2,1.9,1.8,2.8c-0.4,0.6-1,0.7-1.6,0.7c-6.2,0.5-12.3,1.1-18.5,1.6c-1.4,0.1-2.8,0.2-4.1,0.4
			C45.5,66.5,45,66.6,44.6,66.3z"/>
		<path class="st78" d="M138.4,92.1c-1.5-4.3-2.9-8.6-4.4-13c-0.8-2.4-1.7-4.7-2.5-7.1c-0.2-0.5-0.3-0.9,0.1-1.3c0,0,0.1,0,0.1,0
			c0.1,0,0.2,0.1,0.2,0.2c0.1,0.1,0.1,0.1,0.2,0.2c0.1,0.1,0.1,0.1,0.1,0.2c0,0,0.1,0.1,0.1,0.1c0.1,0.1,0.1,0.1,0.2,0.2
			c0,0,0.1,0.1,0.1,0.1c0.1,0.1,0.1,0.1,0.2,0.2c0.1,0.1,0.1,0.1,0.1,0.2c0,0.1,0.1,0.1,0.1,0.2c0,0,0.1,0.1,0.1,0.1
			c0.1,0.1,0.1,0.1,0.2,0.2c0,0,0.1,0.1,0.1,0.1c0.1,0.1,0.1,0.1,0.2,0.2c0.1,0.1,0.1,0.1,0.2,0.2c0.1,0.1,0.2,0.2,0.3,0.3
			c0.3,0.3,0.5,0.6,0.7,0.9c0.9,1.1,1.7,2.3,2.6,3.5c0.3,0.5,0.5,0.9,0.7,1.5c0.3,0.4,0.5,0.9,0.8,1.3c1.2,3.5,2.5,7,3.7,10.5
			c0.2,0.6,0.5,1.1,0.2,1.7c-0.1,0.1-0.2,0.1-0.4,0c-0.1,0-0.2,0-0.2-0.1c-0.2-0.1-0.4-0.1-0.6-0.2
			C140.6,92.5,139.5,92.3,138.4,92.1z"/>
		<path class="st79" d="M74.3,70C69.1,70.5,64,71,58.8,71.5c-4.8,0.5-9.5,0.9-14.3,1.3c-0.8,0.1-0.6,0.8-0.9,1.1
			c0.2-1.1,0.3-2.3,0.5-3.4c0.6-0.6,1.3-0.7,2-0.7c8.4-0.7,16.8-1.5,25.2-2.2c0.6-0.1,1.2,0,1.7,0.3C73.4,68.6,73.9,69.3,74.3,70z"
			/>
		<path class="st80" d="M194.1,121.9c0.6-0.1,1.2-0.2,1.8-0.2c0.8,0.7,0.8,1.7,0.8,2.6c0,5.6,0,11.2,0,16.8c0,4.4,0,8.7,0,13.1
			c0,0.8,0,1.7-0.3,2.4c-0.3,0.7-0.8,0.6-1.2,0.2c-0.1-0.1-0.2-0.2-0.3-0.3c0,0-0.1-0.1-0.1-0.2c-0.1-0.1-0.2-0.2-0.2-0.3
			c-0.1-0.1-0.1-0.2-0.2-0.3c-0.1-0.1-0.1-0.2-0.2-0.3c0-0.1-0.1-0.1-0.1-0.2c-0.1-0.1-0.2-0.2-0.2-0.3c0-0.1-0.1-0.1-0.1-0.2
			c-0.1-0.4-0.2-0.7-0.1-1.1c0.1-9.8,0-19.6,0-29.4C193.6,123.4,193.5,122.6,194.1,121.9z"/>
		<path class="st81" d="M172,185.8c0-2,0-4,0-6c0-0.8,0.3-1.2,1.1-1.1c0.4,0,0.8,0,1.3,0c1,0.1,2.1,0.2,3.1,0.3
			c3.1,0.4,6.3,0.4,9.4,0c0.6-0.7,1.5-0.2,2.2-0.6c0.1,0,0.3-0.1,0.4-0.1c1-0.1,2-0.3,3-0.2c0.3,0.1,0.6,0.2,0.6,0.6
			c-6.7,2.3-13.5,4.6-20.2,6.8c-0.2,0.1-0.4,0.1-0.6,0.2C172.2,185.7,172.1,185.8,172,185.8z"/>
		<path class="st82" d="M55.2,105.2c0,10.9,0,21.8,0,32.8c0,0.6-0.2,1.3-0.2,1.9c-0.7-1.4-1.4-2.8-2.1-4.1c-0.3-1.4-0.2-2.8-0.2-4.2
			c0-7.7,0-15.5,0-23.2c0-0.9,0-1.8-0.3-2.7C53.3,105.5,54.3,105.3,55.2,105.2z"/>
		<path class="st83" d="M195.9,157.1c0.6-7.4,0.2-14.7,0.2-22.1c0-4.5,0.3-8.9-0.2-13.4c0.7-0.1,1.4-0.2,2.1-0.3
			c0,12.1,0,24.1,0,36.2c0,0.7-0.2,1.4-0.2,2.1c-0.5,0.2-0.6-0.3-0.9-0.5c-0.1-0.1-0.2-0.3-0.3-0.4c-0.1-0.1-0.1-0.2-0.2-0.3
			c-0.1-0.1-0.1-0.2-0.2-0.3c0,0-0.1-0.1-0.1-0.1C196,157.8,195.8,157.5,195.9,157.1z"/>
		<path class="st84" d="M123.5,93.2c-2.1-6-4.1-12-6.2-17.9c-3-8.4-6-16.8-9-25.3c-0.2-0.4-0.1-0.9-0.2-1.4c0.1-0.1,0.2-0.1,0.3-0.1
			c0.1,0,0.2,0.1,0.3,0.1c0,0,0.1,0.1,0.1,0.1c0.1,0,0.2,0.1,0.3,0.2c0.1,0,0.2,0.1,0.3,0.1c0.2,0.1,0.3,0.1,0.5,0.2
			c0.4,0.3,0.8,0.6,0.8,1.2c0.4,2.4,1.5,4.6,2.3,6.9c3,8.6,6.1,17.1,9.1,25.6c1,2.9,2.1,5.8,3.1,8.7c0.2,0.6,0.6,1.3-0.4,1.6
			c-0.2,0-0.3,0-0.5,0.1C123.9,93.3,123.7,93.4,123.5,93.2z"/>
		<path class="st85" d="M108.4,95.8c-0.5-3.5-2.1-6.6-3.2-9.9c-3.9-11.3-8-22.5-12-33.8c-1.5-4.1-2.9-8.1-4.4-12.2
			c-0.1-0.4-0.1-0.8-0.2-1.1c0.1-0.1,0.2-0.1,0.3-0.1c0.4,0.1,0.8,0.2,1,0.7c2,5.8,4,11.7,6.1,17.5c3.9,11,7.8,21.9,11.7,32.9
			c0.7,2,1.3,3.9,2,5.9C109.3,95.6,108.8,95.7,108.4,95.8z"/>
		<path class="st86" d="M43.3,75.7c2.2-1.2,4.6-0.8,6.9-1c8.6-0.9,17.2-1.6,25.7-2.4c0.4,0.6,0.8,1.2,1.2,1.8
			c-7.6,0.7-15.3,1.3-22.9,2.1c-3.8,0.4-7.6,0.3-11.3,1.3C43.1,76.9,43.2,76.3,43.3,75.7z"/>
		<path class="st87" d="M194.1,121.9c0,10.1,0,20.1,0,30.2c0,0.7-0.2,1.5-0.3,2.2c-1.2-0.1-1.3-1.4-2-2c-0.1-0.1-0.2-0.2-0.2-0.4
			c-0.1-0.1-0.1-0.3-0.1-0.4c0-0.2,0-0.5,0.1-0.7c-0.1-9,0-17.9,0-26.9c0-0.6,0-1.2,0.5-1.7C192.8,122,193.4,122,194.1,121.9z"/>
		<path class="st53" d="M73,67.9c-7.5,0.7-14.9,1.4-22.4,2c-2.2,0.2-4.4,0.4-6.6,0.6c0.1-0.8,0.2-1.6,0.3-2.3
			c0.7-0.6,1.5-0.6,2.3-0.6c5.2-0.5,10.4-1,15.7-1.4c2.4-0.2,4.8-0.4,7.2-0.7c0.8-0.1,1.6-0.1,2.1,0.6C72.1,66.7,72.5,67.3,73,67.9z
			"/>
		<path class="st84" d="M124.6,93.2c0.7-1.6-0.4-2.9-0.9-4.2c-4.4-12.5-8.9-24.9-13.3-37.4c-0.1-0.4-0.9-1,0.1-1.4
			c0.1-0.1,0.2-0.1,0.3-0.1c0.1,0,0.2,0.1,0.3,0.1c0,0,0.1,0,0.1,0.1c0.1,0,0.2,0.1,0.2,0.1c0.1,0,0.2,0.1,0.2,0.1
			c0.1,0.1,0.2,0.2,0.3,0.3c0.1,0.1,0.2,0.2,0.1,0.4c0.3,3.2,1.8,6.1,2.9,9.1c3.8,10.8,7.6,21.6,11.5,32.4c-0.1,0.1-0.1,0.2-0.3,0.2
			C125.6,93,125.1,93.1,124.6,93.2z"/>
		<path class="st88" d="M52.3,105.7c0.7,0,0.9,0.4,0.9,1c0,9.4,0,18.7,0,28.1c0,0.3-0.2,0.7-0.3,1c-0.7-1.4-1.4-2.8-2.1-4.2
			c-0.2-1.2-0.3-2.4-0.3-3.6c0-6.7,0-13.4,0-20.2c0-0.6,0-1.2,0.2-1.8C51.3,105.8,51.8,105.8,52.3,105.7z"/>
		<path class="st89" d="M192.1,122.1c0,9.1,0,18.2,0,27.4c0,0.6-0.2,1.3-0.3,1.9c-1.5-0.6-2.1-1.8-2.4-3.2c0.2-2,0.1-4.1,0.1-6.1
			c0-6,0-11.9,0-17.9c0-0.6-0.2-1.3,0.5-1.8C190.7,122.3,191.4,122.2,192.1,122.1z"/>
		<path class="st90" d="M181.9,138c0-4.9,0-9.7,0-14.6c1.3-0.2,2.6-0.3,3.9-0.5c0,5.9,0,11.9,0,17.8c0,0.4-0.1,0.8-0.2,1.1
			c-0.1,0.1-0.2,0.2-0.3,0.3c-0.3,0.2-0.5,0.1-0.8-0.1c-0.1-0.1-0.2-0.2-0.3-0.3c0,0-0.1-0.1-0.1-0.1c-0.1-0.1-0.1-0.2-0.2-0.3
			c-0.1-0.2-0.3-0.4-0.4-0.5c-0.1-0.1-0.1-0.2-0.2-0.3c0,0-0.1-0.1-0.1-0.1c-0.1-0.1-0.1-0.2-0.2-0.3c-0.1-0.1-0.1-0.2-0.2-0.3
			c-0.3-0.4-0.6-0.7-0.8-1.1c-0.1-0.1-0.2-0.3-0.2-0.5C181.8,138.2,181.8,138.1,181.9,138z"/>
		<path class="st91" d="M169.1,177.9c-0.4-0.1-0.9-0.2-1.3-0.3c-0.5-0.3-0.6-0.8-0.7-1.3c-0.3-4.2-0.8-8.4-1.1-12.6
			c-0.5-5.4-1-10.7-1.4-16.1c-0.4-4.3-0.8-8.6-1.1-12.8c-0.2-2.2-0.4-4.4-0.6-6.6c0-0.7-0.2-1.4-0.6-2c0.6-0.1,1.3-0.2,1.9-0.3
			c1.1,12.6,2.3,25.2,3.4,37.8C168,168.5,168.6,173.2,169.1,177.9z"/>
		<path class="st92" d="M185,142.2c0.6-1.8,0.2-3.6,0.3-5.4c0.1-4.1,0-8.2,0-12.4c0-0.6,0-1.1,0.5-1.5c0.7-0.1,1.4-0.2,2.1-0.3
			c0.5,0.6,0.5,1.4,0.5,2.1c0,6.1,0,12.3,0,18.4c0,0.7,0,1.5-0.3,2.2c-0.1,0.1-0.1,0.3-0.2,0.4c-0.1,0.1-0.2,0.2-0.4,0.2
			c-0.1,0-0.3-0.1-0.4-0.2c0,0-0.1-0.1-0.1-0.1c-0.1-0.1-0.2-0.2-0.3-0.3c0,0-0.1-0.1-0.1-0.1C186.1,144.2,184.9,143.5,185,142.2z"
			/>
		<path class="st93" d="M71.7,66.1c-2.6-0.5-5.1,0.2-7.6,0.4c-5.4,0.4-10.7,1-16.1,1.5c-1.2,0.1-2.5,0.2-3.7,0.3
			c0.1-0.6,0.2-1.2,0.3-1.8c3.8-0.9,7.7-0.8,11.5-1.3c4.7-0.5,9.3-0.9,14-1.3c0,0,0,0,0,0c0,0.1,0.2,0.2,0.2,0.3l0,0
			c0.2,0.1,0.1,0.4,0.3,0.5l0,0c0,0.1,0.2,0.2,0.2,0.3l0,0c0.2,0.1,0.1,0.4,0.3,0.5C71.4,65.5,71.5,65.8,71.7,66.1z"/>
		<path class="st94" d="M295.7,238c1.7,0.2,2.5,0.2,3.3,0.3c-0.6,0.5-1.2,1.1-1.8,1.6c-3.8,3-7.7,6.1-11.5,9.1
			c-1.6,1.3-1.7-0.7-2.5-1.2c-1-0.7,0.2-1,0.5-1.2c2.8-2.3,5.7-4.5,8.5-6.9C293.5,238.6,294.8,237.6,295.7,238z"/>
		<path class="st95" d="M162.3,126.3c1.4,0.1,1,1.4,1.1,2.1c0.9,9.1,1.6,18.2,2.4,27.3c0.7,7.3,1.4,14.6,2.1,21.9
			c-0.4-0.1-0.9-0.2-1.3-0.3c-0.3-4.7-0.6-9.5-1.1-14.2c-0.5-5.2-1-10.4-1.5-15.6c-0.6-7.1-1.2-14.2-1.9-21.3
			C162.1,126.2,162.2,126.2,162.3,126.3z"/>
		<path class="st52" d="M187.6,145.8c0.6-7.7,0.1-15.4,0.2-23.2c0.7-0.1,1.4-0.2,2.1-0.3c0,7.5,0,15,0,22.6c0,1.2-0.2,2.5-0.2,3.7
			c-0.2,0.1-0.3,0-0.5-0.1c-0.6-0.6-1-1.3-1.5-2c-0.1-0.1-0.1-0.2-0.2-0.3c0-0.1,0-0.1,0-0.2C187.5,146,187.5,145.9,187.6,145.8z"/>
		<path class="st96" d="M155.7,127c0.2,0,0.4,0.1,0.6,0.1c0.6,0.5,0.5,1.3,0.6,1.9c0.2,3.4,0.6,6.8,0.9,10.2
			c0.3,3.3,0.6,6.6,0.9,9.9c0.3,3.3,0.6,6.6,0.9,9.9c0.3,3.3,0.6,6.6,0.9,9.9c0.2,2,0.3,4.1,0.5,6.1c0,0.3-0.1,0.5-0.3,0.7
			c-0.3-0.1-0.7-0.2-1-0.3c-0.7-7.4-1.4-14.8-2-22.2c-0.6-6.2-1.1-12.4-1.6-18.6c-0.2-2.6-0.5-5.2-0.8-7.7
			C155.5,127.1,155.6,127,155.7,127z"/>
		<path class="st97" d="M195.9,157.1c0.2,0.3,0.4,0.7,0.5,1c0.5,4.4,0.8,8.8,1.2,13.3c0.1,1.5,0.2,3,0.4,4.5
			c0.1,0.4,0.1,0.9-0.1,1.3c-0.5,0.2-1.1,0.3-1.6,0.5c-0.3-0.2-0.8,0-1-0.4c-0.6-1.2-0.5-2.5-0.6-3.8c-0.5-5.6-1.1-11.2-1.5-16.8
			c0-0.6-0.3-1.5,0.8-1.6l0,0c0.1,0.1,0.2,0.2,0.2,0.3l0,0c0.1,0.1,0.2,0.1,0.2,0.2c0.1,0,0.1,0.1,0.1,0.2c0,0.2,0.1,0.3,0.3,0.3
			l0,0c0.1,0.1,0.2,0.2,0.2,0.3C195.4,156.6,195.7,156.8,195.9,157.1z"/>
		<path class="st92" d="M50.8,105.9c0.1,0.4,0.3,0.7,0.3,1.1c0,7.7,0,15.5,0,23.2c0,0.4-0.2,0.8-0.2,1.3c-0.6-1.2-1.2-2.4-1.8-3.6
			c-0.3-0.7-0.2-1.4-0.2-2.2c0-5.8,0-11.6,0-17.4c0-0.7,0-1.5,0.5-2.1C49.7,106.1,50.2,106,50.8,105.9z"/>
		<path class="st98" d="M38.8,107.8c1.9-0.3,3.8-0.5,5.7-0.8c1.1-0.2,1,0.8,1,1.4c0.1,1.7,0,3.4,0,5c0,1.6,0,3.1,0,4.7
			c0,0.6,0.1,1.3-0.8,1.5C42.8,115.6,40.8,111.7,38.8,107.8z"/>
		<path class="st99" d="M49.2,106.2c0,6.5,0,13.1,0,19.6c0,0.7-0.2,1.4-0.3,2c-0.6-1.2-1.2-2.4-1.8-3.6c-0.4-1.1-0.5-2.3-0.5-3.5
			c0-3.9,0-7.7,0-11.6c0-0.9-0.1-1.7-0.6-2.5C47.1,106.5,48.2,106.4,49.2,106.2z"/>
		<path class="st100" d="M198.1,177.1c-1-3.7-0.9-7.6-1.3-11.4c-0.2-2.5-1-5.1-0.3-7.7l0,0c0.1,0.1,0.2,0.2,0.2,0.3l0,0
			c0.2,0.1,0.1,0.4,0.3,0.5c0.2,0.3,0.5,0.5,0.7,0.8c0.5,0.8,1,1.6,1.6,2.4c-0.3,1.5,0.1,3,0.3,4.5c0.2,2.3,0.4,4.6,0.6,7
			c0.1,1,0.3,2-0.4,2.9C199.3,176.6,198.7,176.9,198.1,177.1z"/>
		<path class="st99" d="M46.1,54.6c0.2-1.2,0.3-2.4,0.5-3.6c1.6-0.8,3.4-0.5,5.1-0.7c2.5-0.3,5-0.5,7.5-0.7c0.6-0.1,1.2-0.1,1.7,0.3
			c0.5,0.8,1.1,1.6,1.6,2.4c-0.3,0.6-1,0.7-1.6,0.7C57,53.4,53,53.8,49,54C48,54.1,47.1,54.5,46.1,54.6z"/>
		<path class="st101" d="M60.9,49.9c-4.4,0.4-8.8,0.8-13.2,1.1c-0.4,0-0.7-0.1-1.1-0.1c0.1-0.6,0.2-1.2,0.2-1.8
			c0-1.2,0.8-1.6,1.8-1.7c3-0.2,6-0.5,9-0.8c0.5,0,0.8,0.1,1.2,0.4C59.6,48,60.3,48.9,60.9,49.9z"/>
		<path class="st102" d="M68.3,60.9c-7.7,0.7-15.5,1.4-23.2,2.1c0-0.2,0-0.3,0-0.5c0-1.4,0.9-1.6,2-1.7c3.7-0.5,7.5-0.7,11.2-1.1
			c2.5-0.2,5.1-0.4,7.6-0.7c0.4,0,0.8-0.1,1.2,0.1l0,0c0,0.2,0.1,0.2,0.2,0.3C67.6,59.8,67.9,60.3,68.3,60.9z"/>
		<path class="st103" d="M46.1,54.6c0.7-1.3,2-0.9,3.1-1c4.4-0.5,8.8-0.9,13.3-1.3c0,0,0,0,0,0c0.2,0.1,0.1,0.4,0.3,0.5l0,0
			c0.1,0.1,0.2,0.2,0.2,0.3l0,0c0.2,0.1,0.1,0.4,0.3,0.5c0.2,0.3,0.3,0.5,0.5,0.8c-0.4,0.7-1.1,0.7-1.7,0.8
			c-4.6,0.5-9.3,0.9-13.9,1.3c-0.8,0.1-1.6,0.4-2.4,0.3C46,56,46.1,55.3,46.1,54.6z"/>
		<path class="st104" d="M65.1,56.2c0.3,0.5,0.7,1,1,1.6c-0.3,0.6-1,0.7-1.6,0.7c-3.5,0.4-7,0.7-10.5,1c-2.9,0.3-5.9,0.5-8.8,0.9
			c0.1-0.6,0.2-1.2,0.3-1.8c0.3-1.1,1.2-1.1,2.1-1.2c1.7-0.2,3.5-0.3,5.2-0.5c3.6-0.3,7.2-0.7,10.8-0.9
			C64.1,55.9,64.7,55.8,65.1,56.2z"/>
		<path class="st105" d="M199.9,176.4c-0.3-4-0.7-8-1-12c-0.1-0.8-0.6-1.7,0.5-2.3l0,0c0.1,0.1,0.2,0.2,0.2,0.3l0,0
			c0.2,0.1,0.1,0.4,0.3,0.5c0.1,0,0.1,0,0.2,0c0.7,0.9,1.4,1.9,2.1,2.8c0.1,0.2,0.2,0.4,0.2,0.6c-0.9,0.7-0.4,1.6-0.3,2.5
			c0.2,1.9,0.5,3.9,0.5,5.8C202.6,176.1,200.8,175.7,199.9,176.4z"/>
		<path class="st106" d="M65.1,56.2C59,56.8,52.9,57.4,46.7,58c-0.4,0-0.7,0.3-1.1,0.5c0.1-0.6,0.2-1.2,0.3-1.8c1.5-1.4,3.4-0.8,5-1
			c4.3-0.6,8.6-0.9,13-1.4C64.3,54.9,64.7,55.6,65.1,56.2z"/>
		<path class="st107" d="M46.1,106.7c0.9-0.1,1.1,0.3,1.1,1.2c0,5.5,0,10.9,0,16.4c-0.8-1.6-1.6-3.1-2.4-4.7c0.7-3,0.2-6.1,0.3-9.1
			c0-1.1,0.7-2.5-0.5-3.5C45,106.9,45.6,106.8,46.1,106.7z"/>
		<path class="st108" d="M45.4,60.3c1.5-1.4,3.5-0.8,5.2-1c5.2-0.6,10.4-1.1,15.6-1.6l0,0c0.2,0.1,0.1,0.4,0.3,0.5l0,0
			c0,0.1,0.1,0.2,0.2,0.3l0,0c0.1,0.1,0.1,0.2,0.2,0.3C67,58.8,67,58.9,67,59c-2.7,1-5.5,0.7-8.3,1.1c-4.1,0.5-8.1,0.9-12.2,1.2
			c-0.8,0.1-1.2,0.5-1.4,1.2C45.2,61.7,45.3,61,45.4,60.3z"/>
		<path class="st109" d="M89.9,39.2c-0.3-0.2-0.7-0.4-1-0.5c0-1.5,0-2.9,0.1-4.4c0-1.6,0.2-1.7,1.8-1.7c0.3,0,0.7,0.1,1-0.1
			c3.4,0,6.8,0,10.2,0c0.1,0.1,0.1,0.1,0.1,0.2c0,0.1-0.1,0.1-0.1,0.1c-0.4,0-0.9,0-1.3,0c-1.7,0-3.4,0.2-5.1,0
			c-2.2-0.3-2.7,0.6-2.6,2.6c0.1,1.6,0.4,3.3-0.2,5c-0.1,0.1-0.2,0.1-0.3,0C91.6,39.9,90.8,39.6,89.9,39.2z"/>
		<path class="st110" d="M91.7,32.5c-2.7-0.1-2.4,1.7-2.4,3.5c0,0.9,0.6,2-0.5,2.7c-0.1,0-0.2,0-0.3,0c-0.5-0.2-1-0.4-1.6-0.5
			c-0.8-0.3-1.6-0.7-2.4-1c0.3-0.9,0.3-1.9,0.4-2.8c0-1.6,0.1-1.7,1.8-1.8c0.3,0,0.5,0,0.8-0.1C88.9,32.5,90.3,32.5,91.7,32.5z"/>
		<path class="st111" d="M87.5,32.5c-2.3-0.1-2.2,1.4-2.1,3.1c0.1,0.6,0.2,1.5-0.8,1.6c-0.2,0-0.3,0-0.5,0c-0.9-0.3-1.7-0.5-2.6-0.8
			c-0.4-0.2-0.7-0.3-1.1-0.5c0.1-0.9-0.1-2,0.3-2.8c0.6-1.1,1.8-0.1,2.6-0.6C84.8,32.5,86.2,32.5,87.5,32.5z"/>
		<path class="st112" d="M75.5,34.5c-4.5-0.7-9-1.4-13.5-2.1c5.7,0,11.5,0,17.2,0c-1,0.8-2.3,1.2-3.2,2.2
			C75.9,34.7,75.7,34.6,75.5,34.5z"/>
		<path class="st113" d="M142.8,92.9c-1.3-3.7-2.6-7.4-3.9-11.1c-0.1-0.4-0.5-0.8,0-1.2c0.8,1,1.5,2.1,2.3,3.1c1,2.5,1.9,5,2.8,7.5
			c0.1,0.4,0.3,0.8,0.3,1.3c0,0.5-0.1,0.9-0.8,0.6c-0.1,0-0.2,0-0.2,0C143.2,93,142.9,93.1,142.8,92.9z"/>
		<path class="st114" d="M143.6,93.2c1.1-0.4,0.3-1,0.2-1.5c-0.8-2.3-1.6-4.5-2.4-6.8c-0.1-0.4-0.5-0.8-0.1-1.2c0,0,0,0,0,0
			c0.1,0.1,0.2,0.2,0.2,0.3l0,0c0.2,0.1,0.1,0.4,0.3,0.5l0,0c0,0.1,0.2,0.2,0.2,0.3c0.7,0.9,1.4,1.7,2.1,2.6c0.2,0.3,0.4,0.7,0.6,1
			c0.4,1.4,1,2.8,1.5,4.2c0.1,0.4,0.7,1-0.2,1.3C145.1,93.7,144.3,93.5,143.6,93.2z"/>
		<path class="st115" d="M75.5,34.5c0.3-0.1,0.8-0.2,0.8-0.2c0-2.1,1.8-1.4,2.9-1.8c1.4,0,2.8,0,4.2,0c-2.8-0.5-2,2.2-2.9,3.4
			C78.8,35.4,77.2,35,75.5,34.5z"/>
		<path class="st116" d="M47.2,47.3c0.1-0.5,0.2-1,0.2-1.6c1.1-0.8,2.4-0.5,3.6-0.7c1.6-0.2,3.3-0.3,4.9-0.5c0.6,0,1.1,0,1.6,0.4
			c0.3,0.4,0.6,0.9,0.9,1.3c-1.4,0.7-3.1,0.5-4.6,0.7c-1.9,0.2-3.9,0.3-5.8,0.5C47.7,47.5,47.4,47.5,47.2,47.3z"/>
		<path class="st117" d="M57.6,45c-3.4,0.3-6.8,0.5-10.2,0.8c0-0.2,0-0.3,0-0.5c0.1-0.8,0.5-1.2,1.3-1.2c2.2-0.2,4.4-0.5,6.6-0.6
			c0.6,0,1.1-0.1,1.5,0.5C57.1,44.3,57.3,44.6,57.6,45z"/>
		<path class="st118" d="M55,41c0.3,0.4,0.5,0.9,0.8,1.3c-0.3,0.4-0.8,0.6-1.2,0.6c-2.1,0.2-4.2,0.4-6.3,0.6c-0.2,0-0.4-0.1-0.6-0.2
			c0.1-0.6,0.2-1.2,0.3-1.8c0.2-0.3,0.4-0.6,0.8-0.6c1.8-0.2,3.6-0.5,5.4-0.4c0.2,0,0.4,0.1,0.6,0.2l0,0C54.8,40.9,54.9,41,55,41z"
			/>
		<path class="st119" d="M47.7,43.4c2.6-0.9,5.4-0.5,8.1-1.1c0.4,0.5,0.7,1,1.1,1.6c-2.9,0.2-5.8,0.4-8.7,0.6
			c-0.2,0-0.4,0.5-0.7,0.7C47.5,44.6,47.6,44,47.7,43.4z"/>
		<path class="st120" d="M47.2,47.3c3.7-0.8,7.5-1,11.3-1.1c0.2,0.3,0.3,0.5,0.5,0.8c-3.5,0.3-7.1,0.7-10.6,1
			c-0.8,0.1-1.2,0.5-1.4,1.1C47,48.5,47.1,47.9,47.2,47.3z"/>
		<path class="st121" d="M145.9,94c0.2-1.4-0.9-2.5-1.1-3.8c-0.1-0.6-0.8-1.1-0.2-1.8c0,0,0,0,0,0c0,0.2,0.1,0.2,0.2,0.3l0,0
			c0.1,0.1,0.2,0.2,0.2,0.3c1.7,2.3,3.3,4.5,5,6.8C148.7,95.2,147.3,94.6,145.9,94z"/>
		<path class="st122" d="M54.7,40.8c-2.3,0.3-4.5,0.5-6.8,0.8c0.1-0.7,0.2-1.4,0.3-2.1c1.5-0.9,3.2-0.7,4.8-0.8
			c0.3,0,0.5,0.3,0.7,0.5C54,39.7,54.4,40.3,54.7,40.8z"/>
		<path class="st123" d="M53.7,39.2c-1.9-0.5-3.6,0.4-5.5,0.3c0-1.4,0.2-2.6,2.1-2.9C52.4,36.3,52.9,37.9,53.7,39.2z"/>
		<path class="st124" d="M131.1,32.7c0-0.1,0-0.2,0-0.2c2.4,0,4.9-0.3,7.3,0.2c0,0,0,0.1,0,0.1c-1.2,0.7-2.4,0.4-3.6,0.4
			C133.5,33.1,132.2,33.5,131.1,32.7z"/>
		<path class="st125" d="M124.5,32.5c-1.3,0.1-2.6,0.2-3.9,0.2c-0.8,0.6-1.6,0.6-2.5,0.2c-0.2-0.1-0.2-0.2-0.1-0.4
			C120.2,32.5,122.4,32.5,124.5,32.5z"/>
		<path class="st27" d="M101.9,32.7c0-0.1,0-0.2,0-0.2c1.6,0,3.3,0,4.9,0C105.2,32.5,103.5,32.6,101.9,32.7z"/>
		<path class="st126" d="M118,32.5c0,0.1,0,0.2,0,0.2c-0.4,0.5-1,0.4-1.6,0.4c-1,0-2.1,0.4-3.1-0.4c0-0.1,0-0.2,0-0.2
			C114.9,32.5,116.5,32.5,118,32.5z"/>
		<path class="st127" d="M193.1,178.7c-0.2-0.1-0.4-0.2-0.6-0.3c0-0.1,0-0.2,0.1-0.3c0.4-0.3,0.8-0.2,1.2-0.4c0.3,0,0.5-0.1,0.8,0
			c0.2,0.1,0.3,0.2,0.3,0.4C194.3,178.3,193.7,178.5,193.1,178.7z"/>
		<path class="st78" d="M134.9,91.9c1.1,0.1,2.1-0.3,3.2,0.2C137,92,136,92,134.9,91.9z"/>
		<path class="st128" d="M194.9,178.1c-0.1-0.1-0.2-0.2-0.2-0.3c0.2-0.7,0.6-0.5,1.1-0.4c0.3,0.1,0.5,0.1,0.8,0.2
			C195.9,177.8,195.4,178,194.9,178.1z"/>
		<path class="st12" d="M202.5,112.7c0.6-0.1,1.3-0.2,1.9-0.2C203.7,112.6,203.1,112.7,202.5,112.7z"/>
		<path class="st41" d="M231.7,109.3c0.6-0.1,1.1-0.1,1.7-0.2C232.8,109.2,232.2,109.3,231.7,109.3z"/>
		<path class="st9" d="M116,203.7c0.5-0.1,1.1-0.1,1.6-0.2C117,203.6,116.5,203.6,116,203.7z"/>
		<path class="st56" d="M158.7,126.8c-0.2,0-0.4,0-0.6-0.1c0.6-0.1,1.1-0.1,1.7-0.2C159.4,126.7,159,126.8,158.7,126.8z"/>
		<path class="st32" d="M228.3,117.5c-0.5,0.1-1,0.1-1.4,0.2C227.3,117.6,227.8,117.5,228.3,117.5z"/>
		<path class="st73" d="M42.7,80c-0.1,0.5-0.1,0.9-0.2,1.4C42.5,81,42.6,80.5,42.7,80z"/>
		<path class="st95" d="M161.6,126.3c-0.4,0.1-0.9,0.1-1.3,0.2C160.7,126.5,161.1,126.4,161.6,126.3z"/>
		<path class="st70" d="M42.2,83.8c-0.1,0.4-0.1,0.9-0.2,1.3C42,84.7,42.1,84.2,42.2,83.8z"/>
		<path class="st30" d="M105.8,113.3c-0.2-0.2-0.5-0.4-0.7-0.6C105.3,112.9,105.5,113.1,105.8,113.3z"/>
		<path class="st84" d="M123.5,93.2c0.2,0,0.4,0,0.6,0c-0.4,0.1-0.7,0.1-1.1,0.2C123.2,93.3,123.3,93.2,123.5,93.2z"/>
		<path class="st52" d="M126.1,92.9c0.1-0.1,0.2-0.2,0.3-0.2c0.3,0,0.6,0,0.9,0C126.9,92.8,126.5,92.8,126.1,92.9z"/>
		<path class="st85" d="M107.3,95.8c0.2,0,0.4,0,0.6,0c-0.4,0.1-0.7,0.1-1.1,0.2C107,95.9,107.2,95.9,107.3,95.8z"/>
		<path class="st52" d="M127.7,92.6c0.4-0.1,0.7-0.1,1.1-0.2C128.4,92.5,128.1,92.6,127.7,92.6z"/>
		<path class="st47" d="M118,94.2c0.4-0.1,0.7-0.1,1.1-0.2C118.8,94.1,118.4,94.1,118,94.2z"/>
		<path class="st114" d="M142.8,92.9c0.2,0.1,0.4,0.2,0.5,0.3c-0.3-0.1-0.5-0.2-0.8-0.2C142.6,92.9,142.7,92.9,142.8,92.9z"/>
		<path class="st30" d="M99.5,202.2c0.3,0.1,0.5,0.2,0.8,0.3C100.1,202.3,99.8,202.3,99.5,202.2z"/>
		<path class="st5" d="M168.6,40.3c-0.2-0.1-0.3-0.2-0.5-0.2C168.3,40.1,168.4,40.2,168.6,40.3z"/>
		<path class="st38" d="M99.7,90.1c0.1,0.2,0.2,0.3,0.3,0.5C99.9,90.4,99.8,90.3,99.7,90.1z"/>
		<path class="st104" d="M66.5,58.2c-0.1-0.2-0.2-0.3-0.3-0.5C66.3,57.9,66.4,58.1,66.5,58.2z"/>
		<path class="st38" d="M98.5,88.2c0.1,0.2,0.2,0.3,0.3,0.5C98.7,88.6,98.6,88.4,98.5,88.2z"/>
		<path class="st5" d="M167.9,40c-0.2-0.1-0.4-0.2-0.6-0.2C167.5,39.8,167.7,39.9,167.9,40z"/>
		<path class="st71" d="M80.3,78.8c-0.1-0.2-0.2-0.3-0.3-0.5C80.1,78.5,80.2,78.7,80.3,78.8z"/>
		<path class="st99" d="M63.4,53.5c-0.1-0.2-0.2-0.3-0.3-0.5C63.1,53.2,63.3,53.4,63.4,53.5z"/>
		<path class="st113" d="M141.7,92.7c0.2,0.1,0.4,0.1,0.6,0.2C142.1,92.8,141.9,92.8,141.7,92.7z"/>
		<path class="st99" d="M62.8,52.8c-0.1-0.2-0.2-0.3-0.3-0.5C62.6,52.4,62.7,52.6,62.8,52.8z"/>
		<path class="st67" d="M215.5,163c0.1-0.2,0.2-0.3,0.3-0.5C215.7,162.7,215.6,162.9,215.5,163z"/>
		<path class="st55" d="M213.2,166.2c0.1-0.2,0.2-0.3,0.4-0.5C213.4,165.8,213.3,166,213.2,166.2z"/>
		<path class="st105" d="M202.5,166.2c0.1,0.2,0.2,0.3,0.3,0.5C202.7,166.5,202.6,166.4,202.5,166.2z"/>
		<path class="st77" d="M71.2,65.3c-0.1-0.2-0.2-0.3-0.3-0.5C71,65,71.1,65.1,71.2,65.3z"/>
		<path class="st71" d="M80.9,79.6c-0.1-0.2-0.2-0.3-0.3-0.5C80.6,79.3,80.7,79.4,80.9,79.6z"/>
		<path class="st51" d="M172.3,185.7c0.2-0.1,0.4-0.1,0.6-0.2C172.6,185.6,172.4,185.6,172.3,185.7z"/>
		<path class="st21" d="M162.4,189.1c0.2-0.1,0.4-0.1,0.6-0.2C162.7,189,162.5,189,162.4,189.1z"/>
		<path class="st29" d="M137.1,197.7c0.2-0.1,0.4-0.1,0.6-0.2C137.5,197.6,137.3,197.6,137.1,197.7z"/>
		<path class="st77" d="M70.6,64.5c-0.1-0.2-0.2-0.3-0.3-0.5C70.4,64.2,70.5,64.3,70.6,64.5z"/>
		<path class="st32" d="M226.7,147.9c0.1-0.2,0.2-0.3,0.3-0.5C226.9,147.6,226.8,147.8,226.7,147.9z"/>
		<path class="st32" d="M227.5,146.9c0.1-0.2,0.2-0.3,0.3-0.5C227.7,146.6,227.6,146.7,227.5,146.9z"/>
		<path class="st24" d="M125.6,201.6c0.2-0.1,0.4-0.1,0.6-0.2C126,201.5,125.8,201.6,125.6,201.6z"/>
		<path class="st30" d="M102.4,110.1c-0.1-0.1-0.2-0.2-0.3-0.3C102.2,109.9,102.3,110,102.4,110.1z"/>
		<path class="st30" d="M102.7,110.4c-0.1-0.1-0.2-0.2-0.3-0.3C102.5,110.2,102.6,110.3,102.7,110.4z"/>
		<path class="st30" d="M102.9,110.7c-0.1-0.1-0.2-0.2-0.3-0.3C102.8,110.5,102.8,110.6,102.9,110.7z"/>
		<path class="st30" d="M103.2,110.9c-0.1-0.1-0.2-0.2-0.3-0.3C103,110.7,103.1,110.8,103.2,110.9z"/>
		<path class="st30" d="M103.5,111.2c-0.1-0.1-0.2-0.2-0.3-0.3C103.3,111,103.4,111.1,103.5,111.2z"/>
		<path class="st30" d="M103.7,111.4c-0.1-0.1-0.2-0.2-0.3-0.3C103.5,111.2,103.6,111.3,103.7,111.4z"/>
		<path class="st30" d="M104,111.7c-0.1-0.1-0.2-0.2-0.3-0.3C103.8,111.5,103.9,111.6,104,111.7z"/>
		<path class="st30" d="M104.3,111.9c-0.1-0.1-0.2-0.2-0.3-0.3C104.1,111.8,104.2,111.8,104.3,111.9z"/>
		<path class="st30" d="M104.5,112.2c-0.1-0.1-0.2-0.2-0.3-0.3C104.3,112,104.4,112.1,104.5,112.2z"/>
		<path class="st30" d="M104.8,112.4c-0.1-0.1-0.2-0.2-0.3-0.3C104.6,112.3,104.7,112.4,104.8,112.4z"/>
		<path class="st30" d="M105.1,112.7c-0.1-0.1-0.2-0.2-0.3-0.3C104.9,112.5,105,112.6,105.1,112.7z"/>
		<path class="st41" d="M233.5,97.1c-0.1-0.1-0.2-0.2-0.3-0.3C233.3,96.9,233.4,97,233.5,97.1z"/>
		<path class="st38" d="M99.5,89.8c0.1,0.1,0.2,0.2,0.2,0.3C99.7,90,99.6,89.9,99.5,89.8z"/>
		<path class="st38" d="M99.3,89.5c0.1,0.1,0.1,0.2,0.2,0.3C99.5,89.7,99.4,89.6,99.3,89.5z"/>
		<path class="st33" d="M225.9,89.5c-0.1-0.1-0.2-0.2-0.3-0.3C225.8,89.4,225.8,89.5,225.9,89.5z"/>
		<path class="st33" d="M225.7,89.3c-0.1-0.1-0.2-0.2-0.3-0.3C225.5,89.1,225.6,89.2,225.7,89.3z"/>
		<path class="st38" d="M99,89c0.1,0.1,0.2,0.2,0.2,0.4C99.2,89.3,99.1,89.2,99,89z"/>
		<path class="st33" d="M225.4,89c-0.1-0.1-0.2-0.2-0.3-0.3C225.2,88.9,225.3,88.9,225.4,89z"/>
		<path class="st38" d="M98.8,88.7c0.1,0.1,0.1,0.2,0.2,0.3C98.9,88.9,98.9,88.8,98.8,88.7z"/>
		<path class="st33" d="M225.1,88.8c-0.1-0.1-0.2-0.2-0.3-0.3C225,88.6,225.1,88.7,225.1,88.8z"/>
		<path class="st33" d="M224.9,88.5c-0.1-0.1-0.2-0.2-0.3-0.3C224.7,88.3,224.8,88.4,224.9,88.5z"/>
		<path class="st41" d="M232.4,96.1c-0.1-0.1-0.2-0.2-0.3-0.3C232.3,95.9,232.4,96,232.4,96.1z"/>
		<path class="st25" d="M217.1,80.7c-0.1-0.1-0.2-0.2-0.3-0.3C216.9,80.5,217,80.6,217.1,80.7z"/>
		<path class="st25" d="M216.8,80.4c-0.1-0.1-0.2-0.2-0.3-0.3C216.6,80.2,216.7,80.3,216.8,80.4z"/>
		<path class="st122" d="M55,41c-0.1-0.1-0.2-0.2-0.2-0.3C54.8,40.9,54.9,41,55,41z"/>
		<path class="st71" d="M80.5,79.1c-0.1-0.1-0.2-0.2-0.2-0.3C80.4,78.9,80.4,79,80.5,79.1z"/>
		<path class="st71" d="M80,78.3c-0.1-0.1-0.1-0.2-0.2-0.3C79.8,78.1,79.9,78.2,80,78.3z"/>
		<path class="st21" d="M209.5,73.1c-0.1-0.1-0.2-0.2-0.3-0.3C209.3,72.9,209.4,73,209.5,73.1z"/>
		<path class="st21" d="M209.2,72.9c-0.1-0.1-0.2-0.2-0.3-0.3C209.1,72.7,209.2,72.8,209.2,72.9z"/>
		<path class="st12" d="M203.2,66.9c-0.1-0.1-0.2-0.2-0.3-0.3C203.1,66.7,203.2,66.8,203.2,66.9z"/>
		<path class="st12" d="M203,66.6c-0.1-0.1-0.2-0.2-0.3-0.3C202.8,66.4,202.9,66.5,203,66.6z"/>
		<path class="st4" d="M232.5,140.2c0.1-0.1,0.2-0.2,0.2-0.3C232.6,140,232.6,140.1,232.5,140.2z"/>
		<path class="st12" d="M202.7,66.3c-0.1-0.1-0.2-0.2-0.3-0.3C202.6,66.2,202.6,66.3,202.7,66.3z"/>
		<path class="st12" d="M202.5,66.1c-0.1-0.1-0.2-0.2-0.3-0.3C202.3,65.9,202.4,66,202.5,66.1z"/>
		<path class="st12" d="M202.2,65.8c-0.1-0.1-0.2-0.2-0.3-0.3C202,65.6,202.1,65.7,202.2,65.8z"/>
		<path class="st12" d="M201.9,65.6c-0.1-0.1-0.2-0.2-0.3-0.3C201.8,65.4,201.9,65.5,201.9,65.6z"/>
		<path class="st32" d="M228,146.1c0.1-0.1,0.2-0.2,0.2-0.3C228.2,145.9,228.1,146,228,146.1z"/>
		<path class="st32" d="M227.8,146.4c0.1-0.1,0.2-0.2,0.2-0.3C228,146.2,227.9,146.3,227.8,146.4z"/>
		<path class="st6" d="M185.6,49.9c-0.1-0.1-0.2-0.2-0.3-0.2C185.4,49.7,185.5,49.8,185.6,49.9z"/>
		<path class="st32" d="M227.3,147.2c0.1-0.1,0.2-0.2,0.2-0.3C227.4,147,227.3,147.1,227.3,147.2z"/>
		<path class="st32" d="M227,147.5c0.1-0.1,0.2-0.2,0.2-0.3C227.2,147.3,227.1,147.4,227,147.5z"/>
		<path class="st32" d="M226.5,148.2c0.1-0.1,0.2-0.2,0.2-0.3C226.6,148,226.6,148.1,226.5,148.2z"/>
		<path class="st12" d="M201.7,65.3c-0.1-0.1-0.2-0.2-0.3-0.3C201.5,65.1,201.6,65.2,201.7,65.3z"/>
		<path class="st77" d="M70.8,64.8c-0.1-0.1-0.1-0.2-0.2-0.3C70.7,64.6,70.8,64.7,70.8,64.8z"/>
		<path class="st99" d="M63,53c-0.1-0.1-0.1-0.2-0.2-0.3C62.9,52.8,63,52.9,63,53z"/>
		<path class="st77" d="M70.3,64c-0.1-0.1-0.1-0.2-0.2-0.3C70.2,63.8,70.3,63.9,70.3,64z"/>
		<path class="st67" d="M215.3,163.3c0.1-0.1,0.1-0.2,0.2-0.3C215.4,163.1,215.3,163.2,215.3,163.3z"/>
		<path class="st67" d="M215,163.6c0.1-0.1,0.2-0.2,0.2-0.3C215.2,163.4,215.1,163.5,215,163.6z"/>
		<path class="st59" d="M211.1,168.9c0.1-0.1,0.2-0.2,0.2-0.3C211.3,168.7,211.2,168.8,211.1,168.9z"/>
		<path class="st10" d="M96.9,103.4c-0.1-0.1-0.2-0.2-0.2-0.3C96.8,103.1,96.9,103.2,96.9,103.4z"/>
		<path class="st41" d="M233,96.6c-0.1-0.1-0.2-0.2-0.3-0.3C232.8,96.4,232.9,96.5,233,96.6z"/>
		<path class="st10" d="M97.1,103.6c-0.1-0.1-0.1-0.2-0.2-0.3C97,103.4,97.1,103.5,97.1,103.6z"/>
		<path class="st10" d="M97.5,104.1c-0.1-0.1-0.2-0.2-0.2-0.4C97.3,103.9,97.4,104,97.5,104.1z"/>
		<path class="st41" d="M233.2,96.8c-0.1-0.1-0.2-0.2-0.3-0.3C233.1,96.7,233.1,96.8,233.2,96.8z"/>
		<path class="st41" d="M233.7,97.4c-0.1-0.1-0.2-0.2-0.3-0.3C233.6,97.2,233.7,97.3,233.7,97.4z"/>
		<path class="st41" d="M232.7,96.3c-0.1-0.1-0.2-0.2-0.3-0.3C232.5,96.2,232.6,96.2,232.7,96.3z"/>
		<path class="st30" d="M101.2,108.8c-0.1-0.1-0.2-0.2-0.3-0.3C101,108.6,101.1,108.7,101.2,108.8z"/>
		<path class="st30" d="M101.4,109.1c-0.1-0.1-0.2-0.2-0.3-0.3C101.2,108.9,101.3,109,101.4,109.1z"/>
		<path class="st30" d="M101.7,109.3c-0.1-0.1-0.2-0.2-0.3-0.3C101.5,109.1,101.6,109.2,101.7,109.3z"/>
		<path class="st41" d="M232.2,95.8c-0.1-0.1-0.2-0.2-0.3-0.3C232,95.6,232.1,95.7,232.2,95.8z"/>
		<path class="st104" d="M67.2,59.3c-0.1-0.1-0.2-0.2-0.2-0.3C67.1,59.1,67.2,59.2,67.2,59.3z"/>
		<path class="st30" d="M101.9,109.6c-0.1-0.1-0.2-0.2-0.3-0.3C101.7,109.4,101.8,109.5,101.9,109.6z"/>
		<path class="st104" d="M66.9,58.8c-0.1-0.1-0.1-0.2-0.2-0.3C66.8,58.6,66.8,58.7,66.9,58.8z"/>
		<path class="st104" d="M66.7,58.5c-0.1-0.1-0.2-0.2-0.2-0.3C66.6,58.3,66.6,58.4,66.7,58.5z"/>
		<path class="st30" d="M102.2,109.9c-0.1-0.1-0.2-0.2-0.3-0.3C102,109.7,102.1,109.8,102.2,109.9z"/>
		<path class="st18" d="M106.3,117.2c-0.1-0.1-0.2-0.2-0.3-0.3C106.1,117,106.2,117.1,106.3,117.2z"/>
		<path class="st18" d="M106.6,117.4c-0.1-0.1-0.2-0.2-0.3-0.3C106.4,117.3,106.5,117.3,106.6,117.4z"/>
		<path class="st7" d="M110.5,123.2c-0.1-0.1-0.2-0.2-0.3-0.3C110.3,123,110.4,123.1,110.5,123.2z"/>
		<path class="st9" d="M116,131.3c-0.1-0.1-0.2-0.2-0.3-0.3C115.8,131.1,115.9,131.2,116,131.3z"/>
		<path class="st9" d="M116.5,132c-0.1-0.1-0.2-0.2-0.3-0.3C116.3,131.9,116.4,131.9,116.5,132z"/>
		<path class="st9" d="M117,132.8c-0.1-0.1-0.2-0.2-0.3-0.3C116.8,132.6,116.9,132.7,117,132.8z"/>
		<path class="st24" d="M126.4,146.6c-0.1-0.1-0.2-0.2-0.3-0.3C126.2,146.5,126.3,146.5,126.4,146.6z"/>
		<path class="st24" d="M126.9,147.4c-0.1-0.1-0.2-0.2-0.3-0.3C126.7,147.2,126.8,147.3,126.9,147.4z"/>
		<path class="st13" d="M131.3,153.9c-0.1-0.1-0.2-0.2-0.3-0.3C131.2,153.8,131.2,153.8,131.3,153.9z"/>
		<path class="st29" d="M137.6,161.5c-0.1-0.1-0.2-0.2-0.3-0.3C137.4,161.3,137.5,161.4,137.6,161.5z"/>
		<path class="st31" d="M145.7,169.3c-0.1-0.1-0.2-0.2-0.2-0.2C145.5,169.2,145.6,169.2,145.7,169.3z"/>
		<path class="st31" d="M145.9,169.6c-0.1-0.1-0.2-0.2-0.3-0.3C145.8,169.4,145.8,169.5,145.9,169.6z"/>
		<path class="st114" d="M145.1,89c-0.1-0.1-0.1-0.2-0.2-0.3C145,88.8,145,88.9,145.1,89z"/>
		<path class="st114" d="M144.9,88.7c-0.1-0.1-0.2-0.2-0.2-0.3C144.7,88.5,144.8,88.6,144.9,88.7z"/>
		<path class="st8" d="M77.9,238.1c-6.6,0-13.3,0-19.9,0c-2.8,0-4.4,1.4-5,4c-1.5,7.2-3,14.4-4.5,21.7c-0.4,2.2,0.8,3.6,3,3.6
			c3.4,0,6.8,0,10.2,0c3.3,0,6.7,0,10,0c2.7,0,4.3-1.4,4.9-3.9c1.5-7.2,3-14.3,4.4-21.5C81.6,239.5,80.4,238.1,77.9,238.1z
			 M77.3,242.5c-1.5,6.9-2.9,13.7-4.3,20.6c-0.2,0.8-0.5,0.9-1.2,0.9c-3.1,0-6.2,0-9.2,0c-3.1,0-6.2,0-9.2,0c-0.8,0-1.1-0.1-0.9-1
			c1.4-6.8,2.9-13.7,4.2-20.5c0.2-0.8,0.5-1,1.3-1c6.2,0,12.3,0,18.5,0C77.1,241.5,77.5,241.5,77.3,242.5z"/>
		<path class="st30" d="M134.7,32.7c1.2,0,2.4,0,3.6,0.1c0,15.1,0,30.1,0,45.2c0,0.5-0.2,0.9-0.2,1.4c-1.2-1.6-2.4-3.3-3.7-4.9
			c-0.2-0.4-0.3-0.9-0.3-1.4c0.1-12.7,0-25.4,0-38.1C134.2,34.1,134.1,33.3,134.7,32.7z"/>
		<path class="st113" d="M141.8,84.6c-0.1-0.2-0.2-0.3-0.3-0.5C141.6,84.3,141.7,84.4,141.8,84.6z"/>
		<path class="st113" d="M142,84.8c-0.1-0.1-0.2-0.2-0.2-0.3C141.9,84.6,141.9,84.7,142,84.8z"/>
		<path class="st113" d="M141.5,84.1c-0.1-0.1-0.1-0.2-0.2-0.3C141.3,83.9,141.4,84,141.5,84.1z"/>
		<path class="st129" d="M183.2,179c-3.3,0.3-1.9-2.5-2-3.6c-1.3-12.4-2.4-24.9-3.5-37.3c-0.1-1.3-0.2-2.7-0.3-4
			c0-0.4-0.3-1.1,0.3-1.2c0.2-0.1,0.7,0.5,0.9,0.9c0.4,0.6,0.7,1.2,1.1,1.8c0.2,3.2,0.6,6.3,0.9,9.4c0.5,5.3,1,10.6,1.5,15.9
			c0.5,5.3,0.9,10.6,1.5,15.9C183.6,177.5,183.8,178.3,183.2,179z"/>
		<path class="st130" d="M183.2,179c-0.7-7.6-1.4-15.1-2-22.7c-0.6-6.7-1.2-13.3-1.8-20c0-0.3,0.3-0.6,0.5-0.8c0,0,0,0,0,0
			c0.1,0.1,0.2,0.2,0.3,0.3l0,0c0.1,0.1,0.2,0.2,0.3,0.3c0.3,0.5,0.7,1,1,1.6c0,2.6,0.3,5.2,0.6,7.7c0.2,2.2,0.4,4.4,0.6,6.6
			c0.2,2.6,0.5,5.2,0.7,7.9c0.2,2.3,0.4,4.6,0.6,7c0.2,2.4,0.4,4.8,0.7,7.2c0.2,1.2,0.1,2.5,0.3,3.7c0.1,0.5,0,1-0.4,1.3
			C184.1,178.9,183.6,179,183.2,179z"/>
		<path class="st131" d="M184.5,141.7c0.1,0.2,0.2,0.3,0.3,0.5c0.1,3.5,0.5,6.9,0.8,10.4c0.5,5.4,1,10.7,1.5,16.1
			c0.2,2.4,0.5,4.8,0.6,7.1c0.1,1.3,0.3,2.4,1.6,3c-0.8,0.1-1.6,0.2-2.4,0.2c-0.3,0-0.5-0.1-0.8-0.1c-0.7-0.6-0.5-1.6-0.6-2.3
			c-0.2-2.3-0.4-4.6-0.6-6.9c-0.2-2.4-0.4-4.9-0.7-7.3c-0.2-2.2-0.4-4.4-0.6-6.6c-0.2-2.6-0.5-5.2-0.7-7.8c-0.2-2.2-0.4-4.4-0.6-6.6
			c-0.1-0.6-0.2-1.4,0.9-1.3l0,0c0.1,0.1,0.2,0.2,0.3,0.3l0,0c0.1,0.1,0.2,0.2,0.2,0.3c0.1,0.2,0.2,0.3,0.3,0.5
			c0.1,0.1,0.2,0.2,0.3,0.3l0,0C184.3,141.5,184.4,141.6,184.5,141.7z"/>
		<path class="st132" d="M183.2,140.1c-1.3,1.6-0.3,3.3-0.1,4.9c0.4,6.2,1.1,12.4,1.7,18.6c0.5,5.1,0.9,10.2,1.3,15.4
			c-0.3,0-0.5,0-0.8,0c-0.7-0.7-0.5-1.8-0.6-2.6c-0.2-2.3-0.4-4.6-0.6-7c-0.2-2.4-0.4-4.8-0.7-7.2c-0.2-2.3-0.4-4.6-0.6-7
			c-0.2-2.4-0.5-4.9-0.7-7.3c-0.2-2.8-0.6-5.6-0.7-8.4c0-0.3,0.1-0.6,0.3-0.8c0.1-0.1,0.3-0.2,0.4-0.1
			C182.5,139.1,182.9,139.6,183.2,140.1z"/>
		<path class="st133" d="M181.9,138.6c0.4,5.1,0.7,10.2,1.1,15.2c0.4,5.3,1,10.6,1.5,15.9c0.3,3.1,0.5,6.2,0.8,9.3
			c-0.3,0-0.5,0-0.8,0c-0.7-7.6-1.4-15.1-2-22.7c-0.5-5.9-1.1-11.8-1.6-17.7c0-0.5,0-0.9,0.5-1.1c0,0,0,0,0,0
			c0.1,0.1,0.2,0.2,0.3,0.3c0.1,0.1,0.2,0.2,0.3,0.3c0,0.1,0,0.2,0,0.3C182,138.3,182,138.4,181.9,138.6
			C181.9,138.5,181.9,138.6,181.9,138.6z"/>
		<path class="st129" d="M180.1,135.7c-0.1-0.1-0.2-0.2-0.3-0.3C179.9,135.5,180,135.6,180.1,135.7z"/>
		<path class="st129" d="M180.3,135.9c-0.1-0.1-0.2-0.2-0.3-0.3C180.2,135.8,180.2,135.9,180.3,135.9z"/>
		<path class="st130" d="M181.6,137.8c-0.1-0.1-0.2-0.2-0.3-0.3C181.5,137.6,181.5,137.7,181.6,137.8z"/>
		<path class="st35" d="M92.5,40.3c0.1,0,0.2,0,0.3,0c0,0.1,0,0.2,0,0.3C92.7,40.4,92.6,40.3,92.5,40.3z"/>
		<path class="st134" d="M153.7,173.5c-0.7-7.5-1.4-14.9-2-22.4c-0.6-6.2-1.1-12.4-1.6-18.5c-0.1-1.6-0.3-3.3-0.5-4.9
			c1.3-0.2,2-0.1,2.2,1.7c0.5,7.4,1.3,14.9,2,22.3c0.7,7.6,1.4,15.1,2.1,22.7c-0.6-0.2-1.2-0.4-1.8-0.5
			C153.9,173.7,153.8,173.6,153.7,173.5z"/>
		<path class="st135" d="M160.8,175.9c-0.7-7.2-1.4-14.4-2-21.7c-0.6-6.1-1.1-12.2-1.6-18.3c-0.3-2.9-0.5-5.8-0.8-8.8
			c1.5,0.2,0.9,1.5,0.9,2.2c0.7,6.3,1.1,12.6,1.7,18.8c0.7,8.1,1.5,16.2,2.3,24.4c0.1,1.2,0.2,2.4,0.3,3.6c-0.1,0-0.2,0-0.3,0
			C161.1,175.9,160.9,176,160.8,175.9L160.8,175.9z"/>
		<path class="st34" d="M153.7,173.5c0.1,0.1,0.2,0.2,0.3,0.3c-0.2-0.1-0.3-0.2-0.5-0.2C153.6,173.5,153.7,173.5,153.7,173.5z"/>
		<path class="st96" d="M160.8,175.8c0.2,0.1,0.4,0.1,0.5,0.2C161.1,176,160.9,175.9,160.8,175.8z"/>
		<path class="st136" d="M134.7,32.7c0,11.4,0,22.9,0,34.3c0,2.5-0.2,4.9-0.2,7.4c-0.3-0.3-0.5-0.5-0.8-0.8
			c-0.1-0.1-0.2-0.2-0.3-0.3c0-0.1,0-0.1-0.1-0.2c0-0.1-0.1-0.2-0.2-0.2l0,0c-0.1-0.1-0.2-0.2-0.2-0.3l0,0c-0.1-0.1-0.2-0.2-0.3-0.3
			c0-0.1,0-0.1-0.1-0.2c-0.1-0.1-0.1-0.2-0.2-0.2l0,0c-0.1-0.1-0.2-0.2-0.2-0.3l0,0c-0.1-0.1-0.2-0.2-0.3-0.3c0-0.1,0-0.1-0.1-0.2
			c-0.1-0.1-0.1-0.2-0.2-0.3c0,0,0,0,0,0c-0.5-0.8-1-1.6-1.6-2.4c-0.5-0.9-0.3-1.9-0.3-2.8c0-5,0-10,0-15c0-5.2,0-10.5,0-15.7
			c0-0.8-0.1-1.6,0.5-2.2c0.3,0,0.5,0,0.8,0C132.3,32.7,133.5,32.7,134.7,32.7z"/>
		<path class="st124" d="M130.3,32.7c-0.2,11.9,0.3,23.8-0.3,35.7c-1.5-1.9-2.9-3.8-4.4-5.7c-0.1-0.1-0.2-0.2-0.3-0.3
			c0-0.1,0-0.1-0.1-0.2c0-0.1-0.1-0.2-0.2-0.2l0,0c-0.1-0.1-0.2-0.2-0.2-0.3l0,0c-0.1-0.1-0.1-0.1-0.1-0.2c0-0.1,0-0.1,0.1-0.1
			c0.5-0.6,0.5-1.2,0.5-1.9c0-8.2,0.1-16.3-0.1-24.5c0-1.8,0.4-2.5,2.3-2.3C128.5,32.8,129.4,32.7,130.3,32.7z"/>
		<path class="st85" d="M116.5,32.7c0.5,0,1,0,1.6,0c0.9,0,1.7,0,2.6,0c-0.2,8.2,0.3,16.3-0.3,24.5c-0.1,0.1-0.2,0.1-0.3,0l0,0
			c-0.1-0.1-0.2-0.2-0.3-0.3c0,0,0,0,0,0c-0.9-0.7-1.7-1.4-2.6-2.1c-0.1-0.1-0.2-0.2-0.3-0.2c-0.1,0-0.1,0-0.2,0
			c-0.1-0.1-0.2-0.1-0.3-0.3l0,0c-0.1-0.1-0.2-0.3-0.2-0.5c-0.2-0.5-0.3-1-0.3-1.5c0-6,0-12,0-18C116,33.8,116,33.2,116.5,32.7z"/>
		<path class="st52" d="M120.1,57.2c0.1,0,0.2,0,0.3,0c0,0.1,0,0.2,0.1,0.3C120.3,57.4,120.2,57.3,120.1,57.2z"/>
		<path class="st52" d="M120.9,57.7c-0.1-0.1-0.1-0.1-0.2-0.2C120.7,57.6,120.8,57.7,120.9,57.7z"/>
		<path class="st52" d="M121.2,58c-0.1-0.1-0.2-0.2-0.3-0.2C121,57.8,121.1,57.9,121.2,58z"/>
		<path class="st49" d="M124.8,61.4c0,0.1,0,0.2,0,0.3c-0.1-0.1-0.2-0.2-0.3-0.3C124.7,61.3,124.7,61.4,124.8,61.4z"/>
		<path class="st52" d="M121.7,58.5c-0.1-0.1-0.2-0.2-0.3-0.3C121.5,58.3,121.6,58.4,121.7,58.5z"/>
		<path class="st52" d="M121.4,58.2c-0.1-0.1-0.2-0.2-0.3-0.2C121.3,58.1,121.3,58.2,121.4,58.2z"/>
		<path class="st126" d="M111.5,50.7c-0.1,0-0.2,0-0.2,0c-0.1-0.1-0.2-0.2-0.3-0.3l0,0c-0.1-0.1-0.2-0.2-0.3-0.2c-0.1,0-0.2,0-0.2,0
			c-0.4-0.3-0.7-0.5-1.1-0.8c-0.1-0.1-0.2-0.2-0.3-0.2c-0.1,0-0.2,0-0.2,0c-0.1-0.1-0.2-0.2-0.3-0.2l0,0c-0.1-0.1-0.2-0.2-0.3-0.2
			c-0.1,0-0.2,0-0.3,0c-0.2-0.2-0.3-0.3-0.5-0.5c-0.1-0.1-0.2-0.2-0.3-0.3c0,0,0,0,0,0c0-4.4,0.1-8.8,0-13.2c0-1.6,0.4-2.2,2-2
			c1.1,0.1,2.2,0,3.3,0c0.5,0.5,0.5,1.1,0.5,1.7c0,4.9,0,9.8,0,14.7c0,0.8,0,1.6-0.7,2.1c-0.1,0-0.2,0-0.3,0
			c-0.1-0.1-0.2-0.2-0.3-0.2C111.7,50.9,111.6,50.8,111.5,50.7z"/>
		<path class="st47" d="M105.3,46.8c0.1,0.1,0.2,0.2,0.3,0.3C105.4,47,105.4,46.9,105.3,46.8z"/>
		<path class="st47" d="M105.8,47c0.1,0.1,0.2,0.2,0.3,0.3C106,47.2,105.9,47.1,105.8,47z"/>
		<path class="st47" d="M106.3,47.3c0.1,0.1,0.2,0.2,0.3,0.3C106.5,47.5,106.4,47.4,106.3,47.3z"/>
		<path class="st61" d="M107.4,47.8c0.1,0.1,0.2,0.2,0.3,0.3C107.5,48,107.4,47.9,107.4,47.8z"/>
		<path class="st52" d="M119.9,56.9c0.1,0.1,0.2,0.2,0.3,0.3C120,57.1,120,57,119.9,56.9z"/>
		<path class="st125" d="M112.3,51.2c0.6-6.2,0.1-12.3,0.2-18.5c0.3,0,0.5,0,0.8,0c1,0,2.1,0,3.1,0c0,7.1,0,14.3,0,21.4
			c-0.1,0.1-0.2,0.1-0.3,0l0,0c-0.1-0.1-0.2-0.2-0.2-0.2c-0.1,0-0.2-0.1-0.3-0.1c-1-0.8-2.1-1.5-3.1-2.3
			C112.5,51.4,112.4,51.3,112.3,51.2L112.3,51.2z"/>
		<path class="st84" d="M112.3,51.2c0.1,0.1,0.2,0.2,0.3,0.2C112.5,51.4,112.4,51.3,112.3,51.2z"/>
		<path class="st69" d="M164.7,176.9c0.3,0.1,0.5,0.2,0.8,0.2C165.2,177,164.9,177,164.7,176.9z"/>
		<path class="st50" d="M116,53.8c0.1,0.1,0.2,0.2,0.2,0.2C116.1,54,116,53.9,116,53.8z"/>
		<path class="st50" d="M116.2,54.1c0.1,0,0.2,0,0.3,0c0,0.1,0,0.2,0,0.2C116.4,54.2,116.3,54.2,116.2,54.1z"/>
		<path class="st50" d="M116.5,54.3c0.1,0.1,0.2,0.2,0.3,0.3C116.7,54.5,116.6,54.4,116.5,54.3z"/>
		<path class="st50" d="M117,54.6c0.1,0.1,0.2,0.2,0.3,0.2C117.2,54.8,117.1,54.7,117,54.6z"/>
		<path class="st49" d="M125.4,62.4c0.1,0.1,0.2,0.2,0.3,0.3C125.5,62.6,125.4,62.5,125.4,62.4z"/>
		<path class="st49" d="M125.1,61.9c0.1,0.1,0.1,0.2,0.2,0.2C125.2,62.1,125.1,62,125.1,61.9z"/>
		<path class="st49" d="M124.8,61.6c0.1,0.1,0.2,0.2,0.2,0.3C125,61.8,124.9,61.7,124.8,61.6z"/>
		<path class="st100" d="M199.9,162.8c-0.1-0.2-0.2-0.3-0.3-0.5C199.7,162.5,199.8,162.6,199.9,162.8z"/>
		<path class="st100" d="M199.6,162.3c-0.1-0.1-0.1-0.2-0.2-0.3C199.4,162.1,199.5,162.2,199.6,162.3z"/>
		<path class="st54" d="M133.4,73.3c0.1,0.1,0.2,0.2,0.3,0.3C133.6,73.5,133.5,73.4,133.4,73.3z"/>
		<path class="st54" d="M133.2,72.9c0.1,0.1,0.1,0.2,0.2,0.2C133.3,73,133.2,72.9,133.2,72.9z"/>
		<path class="st54" d="M132.9,72.6c0.1,0.1,0.2,0.2,0.2,0.3C133.1,72.8,133,72.7,132.9,72.6z"/>
		<path class="st54" d="M132.7,72.2c0.1,0.1,0.2,0.2,0.3,0.3C132.8,72.5,132.7,72.4,132.7,72.2z"/>
		<path class="st54" d="M132.4,71.8c0.1,0.1,0.1,0.2,0.2,0.2C132.5,72,132.4,71.9,132.4,71.8z"/>
		<path class="st54" d="M132.1,71.5c0.1,0.1,0.2,0.2,0.2,0.3C132.3,71.7,132.2,71.6,132.1,71.5z"/>
		<path class="st54" d="M131.9,71.2c0.1,0.1,0.2,0.2,0.3,0.3C132.1,71.4,132,71.3,131.9,71.2z"/>
		<path class="st54" d="M131.6,70.8c0.1,0.1,0.1,0.2,0.2,0.3C131.7,70.9,131.7,70.8,131.6,70.8z"/>
		<path class="st137" d="M195.7,177.4c-0.4,0.1-0.7,0.3-1.1,0.4c-0.2,0-0.5,0-0.7,0.1c-1-0.2-0.8-1.1-0.9-1.8
			c-0.3-2.1-0.4-4.1-0.6-6.2c-0.5-5.4-1-10.9-1.4-16.3c-0.1-0.7-0.3-1.6,0.9-1.8l0,0c0.1,0.1,0.2,0.2,0.3,0.3
			c0.6,0.7,1.2,1.4,1.8,2.2c0.1,0.2,0.2,0.5,0.3,0.7c-0.8,1.1-0.3,2.4-0.2,3.6C194.5,164.8,195.1,171.1,195.7,177.4z"/>
		<path class="st137" d="M194.4,155.2c-0.1-0.1-0.2-0.2-0.2-0.3C194.2,155,194.3,155.1,194.4,155.2z"/>
		<path class="st137" d="M194.9,156c-0.1-0.1-0.2-0.2-0.3-0.3C194.8,155.8,194.9,155.9,194.9,156z"/>
		<path class="st137" d="M195.2,156.3c-0.1-0.1-0.2-0.2-0.2-0.3C195,156.1,195.1,156.2,195.2,156.3z"/>
		<path class="st137" d="M194.6,155.5c-0.1-0.1-0.1-0.2-0.2-0.2C194.5,155.3,194.5,155.4,194.6,155.5z"/>
		<path class="st138" d="M189.3,178.8c-3,0.2-2-2.4-2.1-3.6c-1.1-10.5-2-20.9-2.9-31.4c0-0.5-0.4-1.3,0.5-1.5c0.1,0,0.2,0,0.2,0
			c0.6,0.9,1.2,1.9,1.9,2.8c0.6,6,1.1,12.1,1.7,18.1c0.4,4.7,0.9,9.5,1.3,14.2c0,0.5,0,1-0.3,1.3L189.3,178.8L189.3,178.8z"/>
		<path class="st139" d="M189.4,178.7c-0.8-8.2-1.5-16.4-2.3-24.6c-0.3-2.8-0.5-5.7-0.7-8.5c0-0.2,0.3-0.4,0.4-0.6c0,0,0,0,0,0
			c0.1,0.1,0.2,0.2,0.2,0.3l0,0c0.1,0.1,0.2,0.2,0.2,0.2c0,0.1,0.1,0.1,0.1,0.2c0.1,0.1,0.2,0.2,0.3,0.3l0,0
			c0.1,0.1,0.2,0.2,0.2,0.3c0.5,0.7,1,1.4,1.5,2.1c0,2.8,0.4,5.5,0.6,8.3c0.5,5.4,1,10.7,1.5,16.1c0.1,1.2,0.3,2.3,0.3,3.5
			c0,0.7,0.5,1.3,0.8,1.9c0,0.1-0.1,0.1-0.1,0.2C191.5,178.5,190.5,178.6,189.4,178.7z"/>
		<path class="st97" d="M197.1,158.9c-0.1-0.2-0.2-0.3-0.3-0.5C196.8,158.6,196.9,158.7,197.1,158.9z"/>
		<path class="st97" d="M196.7,158.4c-0.1-0.1-0.1-0.2-0.2-0.3C196.6,158.2,196.6,158.3,196.7,158.4z"/>
		<path class="st45" d="M108.4,48.6c0.1,0.1,0.2,0.2,0.3,0.2C108.6,48.8,108.5,48.7,108.4,48.6z"/>
		<path class="st45" d="M108.7,48.9c0.1,0.1,0.2,0.2,0.3,0.2C108.8,49,108.8,49,108.7,48.9z"/>
		<path class="st45" d="M109.2,49.1c0.1,0.1,0.2,0.2,0.3,0.2C109.4,49.3,109.3,49.2,109.2,49.1z"/>
		<path class="st140" d="M192.6,178.2c-1.2,0.2-1.2-0.8-1.3-1.5c-0.8-8.7-1.6-17.5-2.4-26.2c-0.1-0.6-0.5-1.5,0.4-2
			c0.1,0.1,0.2,0.1,0.3,0.2c0.7,0.9,1.4,1.8,2,2.7c0,0.1,0.1,0.3,0.1,0.4c-0.9,0.5-0.4,1.3-0.4,2c0.6,7.1,1.2,14.3,1.9,21.4
			c0.1,0.9,0.3,1.8,0.5,2.8C193.5,178,193,178.1,192.6,178.2z"/>
		<path class="st140" d="M192.1,152.1c-0.1-0.1-0.2-0.2-0.3-0.3C191.9,151.9,192,152,192.1,152.1z"/>
		<path class="st84" d="M110.8,50.2c0.1,0.1,0.2,0.2,0.3,0.2C110.9,50.3,110.8,50.3,110.8,50.2z"/>
		<path class="st84" d="M111,50.4c0.1,0.1,0.2,0.2,0.3,0.3C111.2,50.6,111.1,50.5,111,50.4z"/>
		<path class="st84" d="M111.5,50.7c0.1,0.1,0.2,0.2,0.3,0.2C111.7,50.9,111.6,50.8,111.5,50.7z"/>
		<path class="st130" d="M181.9,138.6c0-0.1,0-0.2,0-0.3c0.1,0.1,0.2,0.2,0.3,0.3C182.1,138.6,182,138.6,181.9,138.6z"/>
		<path class="st132" d="M183.5,140.4c-0.1-0.1-0.2-0.2-0.3-0.3C183.3,140.2,183.4,140.3,183.5,140.4z"/>
		<path class="st132" d="M183.7,140.6c-0.1-0.1-0.2-0.2-0.2-0.3C183.5,140.5,183.6,140.6,183.7,140.6z"/>
		<path class="st132" d="M184.2,141.4c-0.1-0.1-0.2-0.2-0.3-0.3C184.1,141.2,184.2,141.3,184.2,141.4z"/>
		<path class="st132" d="M184.5,141.7c-0.1-0.1-0.2-0.2-0.2-0.3C184.3,141.5,184.4,141.6,184.5,141.7z"/>
		<path class="st138" d="M187.1,145.3c-0.1-0.1-0.2-0.2-0.2-0.3C186.9,145.2,187,145.2,187.1,145.3z"/>
		<path class="st138" d="M187.3,145.6c-0.1-0.1-0.1-0.2-0.2-0.2C187.2,145.4,187.3,145.5,187.3,145.6z"/>
		<path class="st138" d="M187.6,146.1c-0.1-0.1-0.2-0.2-0.3-0.3c0.1,0,0.2,0,0.2,0C187.6,145.9,187.6,146,187.6,146.1z"/>
		<path class="st138" d="M187.9,146.4c-0.1-0.1-0.2-0.2-0.2-0.3C187.7,146.2,187.8,146.3,187.9,146.4z"/>
	</g>
</g>
</svg>
